<svg width="24" height="25" viewBox="0 0 24 25" fill="none" xmlns="http://www.w3.org/2000/svg">
<circle cx="12" cy="13" r="10" fill="#D9D9D9"/>
<path fill-rule="evenodd" clip-rule="evenodd" d="M0 4.51672C0 2.44566 1.67893 0.766724 3.75 0.766724H20.25C22.3211 0.766724 24 2.44566 24 4.51672V21.0167C24 23.0878 22.3211 24.7667 20.25 24.7667H3.75C1.67893 24.7667 0 23.0878 0 21.0167V4.51672ZM6.15 10.7417V18.7667H8.7V10.7417H6.15ZM6 8.19172C6 9.01672 6.6 9.61673 7.425 9.61673C8.25 9.61673 8.85 9.01672 8.85 8.19172C8.85 7.36673 8.25 6.76672 7.425 6.76672C6.675 6.76672 6 7.36673 6 8.19172ZM15.45 18.7667H17.85V13.8167C17.85 11.3417 16.35 10.5167 14.925 10.5167C13.65 10.5167 12.75 11.3417 12.525 11.8667V10.7417H10.125V18.7667H12.675V14.4917C12.675 13.3667 13.425 12.7667 14.175 12.7667C14.925 12.7667 15.45 13.1417 15.45 14.4167V18.7667Z" fill="#03111E"/>
</svg>
