<svg width="120" height="120" viewBox="0 0 120 120" fill="none" xmlns="http://www.w3.org/2000/svg">
<circle cx="60" cy="60" r="58" stroke="#01BDB7" stroke-width="4"/>
<path d="M31.8139 96.0001H25.118C24.5005 96.0001 24.003 95.4995 24.003 94.8851L24 69.1868C24 68.5694 24.5005 68.0718 25.115 68.0718H31.8018C32.4192 68.0718 32.9168 68.5724 32.9168 69.1868L32.9258 94.882C32.9258 95.1788 32.8089 95.4635 32.5991 95.6703C32.3952 95.8831 32.1106 96.0001 31.8139 96.0001ZM26.233 93.7671H30.6959L30.6869 70.3016L26.233 70.3046L26.233 93.7671Z" fill="#01BDB7"/>
<path d="M57.6139 95.4307C56.3581 95.4307 55.1023 95.3078 53.8674 95.062L40.6468 92.9789C40.6318 92.9759 40.6169 92.973 40.6019 92.97C39.5138 92.7542 38.3899 92.6433 37.2629 92.6433L32.0866 92.6463C31.4692 92.6463 30.9717 92.1457 30.9717 91.5313C30.9717 90.9139 31.4722 90.4163 32.0866 90.4163H37.2659C38.5307 90.4163 39.7926 90.5392 41.0184 90.782L54.239 92.8651C54.254 92.8681 54.2689 92.8711 54.2839 92.874C57.0624 93.4285 59.9637 93.2787 62.6736 92.4394L91.1894 83.5764C92.3853 83.1718 93.1886 82.0538 93.1886 80.789C93.1886 79.1674 91.8728 77.8457 90.2513 77.8457C90.0685 77.8457 89.8736 77.8637 89.6878 77.8996C89.6758 77.9026 89.6668 77.9026 89.6548 77.9056L62.3889 82.1767C61.7805 82.2726 61.208 81.856 61.1121 81.2476C61.0162 80.6391 61.4328 80.0666 62.0412 79.9707L89.2894 75.6996C89.6042 75.6427 89.9339 75.6127 90.2456 75.6127C93.0959 75.6127 95.4129 77.9326 95.4129 80.786C95.4129 83.0159 93.9921 84.9882 91.8791 85.6925C91.8731 85.6955 91.8641 85.6985 91.8581 85.6985L63.33 94.5646C61.4806 95.1431 59.5471 95.4307 57.6139 95.4307Z" fill="#01BDB7"/>
<path d="M60.8299 82.4671H46.3203C45.7028 82.4671 45.2053 81.9666 45.2053 81.3521C45.2053 80.7347 45.7059 80.2372 46.3203 80.2372H60.8299C61.1086 80.2372 61.3784 80.1862 61.6302 80.0873C61.6451 80.0813 61.6601 80.0753 61.6751 80.0723C61.9479 79.9614 62.1966 79.7966 62.4124 79.5838C62.844 79.1522 63.0748 78.5767 63.0628 77.9623C63.0389 76.7544 62.0048 75.7742 60.755 75.7742H46.8807C44.8426 75.7742 42.8194 75.0998 41.1889 73.8769C39.945 72.9448 38.4044 72.4293 36.8489 72.4263L31.8285 72.5372H31.8045C31.1991 72.5372 30.7015 72.0546 30.6895 71.4462C30.6746 70.8287 31.1631 70.3192 31.7806 70.3042L36.813 70.1933H36.8369C38.875 70.1933 40.8982 70.8677 42.5287 72.0906C43.7756 73.0258 45.3222 73.5412 46.8808 73.5412H60.7551C63.2128 73.5412 65.248 75.5045 65.2959 77.9202C65.3199 79.1431 64.8553 80.2941 63.9891 81.1633C63.5455 81.6039 63.033 81.9395 62.4635 82.1614C62.4425 82.1704 62.4216 82.1764 62.4006 82.1853C61.903 82.3712 61.3724 82.4671 60.8299 82.4671Z" fill="#01BDB7"/>
<path d="M66.4053 71.4312H55.2434C54.6259 71.4312 54.1284 70.9306 54.1284 70.3162V69.2013C54.1284 65.5086 57.1317 62.5054 60.8243 62.5054C64.5169 62.5054 67.5202 65.5086 67.5202 69.2013V70.3162C67.5202 70.9337 67.0197 71.4312 66.4053 71.4312ZM56.3583 69.2013H65.2873C65.2873 66.7405 63.2851 64.7384 60.8244 64.7384C58.3637 64.7354 56.3583 66.7375 56.3583 69.2013Z" fill="#01BDB7"/>
<path d="M60.8235 64.7449C60.206 64.7449 59.7085 64.2443 59.7085 63.6299V38.5163C59.7085 37.8988 60.209 37.4013 60.8235 37.4013C61.4409 37.4013 61.9384 37.9018 61.9384 38.5163V63.6276C61.9414 64.245 61.4409 64.7449 60.8235 64.7449Z" fill="#01BDB7"/>
<path d="M60.8237 61.3881H56.3608C50.8218 61.3881 46.3169 56.8832 46.3169 51.3441C46.3169 50.7267 46.8174 50.2292 47.4319 50.2292H51.8948C57.4337 50.2292 61.9387 54.7341 61.9387 60.2731C61.9387 60.8875 61.4411 61.3881 60.8237 61.3881ZM48.6252 52.459C49.1677 56.2416 52.4287 59.1549 56.3581 59.1549H59.628C59.0855 55.3724 55.8246 52.459 51.8952 52.459H48.6252Z" fill="#01BDB7"/>
<path d="M65.2871 61.3881H60.8242C60.2068 61.3881 59.7092 60.8875 59.7092 60.2731C59.7092 54.7341 64.2141 50.2292 69.7531 50.2292H74.2161C74.8335 50.2292 75.331 50.7297 75.331 51.3441C75.334 56.8831 70.8261 61.3881 65.2871 61.3881ZM62.0201 59.1551H65.2901C69.2195 59.1551 72.4805 56.2387 73.0229 52.4592H69.7529C65.8235 52.4592 62.5625 55.3755 62.0201 59.1551Z" fill="#01BDB7"/>
<path d="M60.8237 49.1113H56.3608C50.8218 49.1113 46.3169 44.6064 46.3169 39.0674C46.3169 38.4499 46.8174 37.9524 47.4319 37.9524H51.8948C57.4337 37.9524 61.9387 42.4573 61.9387 47.9963C61.9387 48.6107 61.4411 49.1113 60.8237 49.1113ZM48.6252 40.1822C49.1677 43.9648 52.4287 46.8781 56.3581 46.8781H59.628C59.0855 43.0956 55.8246 40.1822 51.8952 40.1822H48.6252Z" fill="#01BDB7"/>
<path d="M65.2871 49.1113H60.8242C60.2068 49.1113 59.7092 48.6107 59.7092 47.9963C59.7092 42.4573 64.2141 37.9524 69.7531 37.9524H74.2161C74.8335 37.9524 75.331 38.4529 75.331 39.0674C75.334 44.6063 70.8261 49.1113 65.2871 49.1113ZM62.0201 46.8783H65.2901C69.2195 46.8783 72.4805 43.9619 73.0229 40.1824H69.7529C65.8235 40.1824 62.5625 43.0987 62.0201 46.8783Z" fill="#01BDB7"/>
<path d="M60.8235 39.6244C58.3208 39.6244 56.3606 36.6841 56.3606 32.9285C56.3606 29.5865 59.5496 24.9854 59.9153 24.4706C60.1251 24.1738 60.4638 24 60.8265 24C61.1892 24 61.5279 24.1768 61.7377 24.4706C62.1003 24.9861 65.2894 29.5869 65.2894 32.9285C65.2894 36.684 63.3292 39.6244 60.8235 39.6244ZM60.8235 27.1734C59.8254 28.8399 58.5905 31.2827 58.5905 32.9282C58.5905 35.4818 59.7685 37.3911 60.8235 37.3911C61.8785 37.3911 63.0565 35.4818 63.0565 32.9282C63.0565 31.2827 61.8216 28.8399 60.8235 27.1734Z" fill="#01BDB7"/>
</svg>
