<svg width="1440" height="1437" viewBox="0 0 1440 1437" fill="none" xmlns="http://www.w3.org/2000/svg">
<path d="M743.061 6.06661e-05L781.788 62.6533L893.599 4.75057e-05L901.203 4.68409e-05L1012.93 59.5517L1012.93 3.70734e-05L1016.52 3.67594e-05L1016.52 59.875L1123.77 2.73834e-05L1134.33 2.64601e-05L1134.33 119.103L1203.89 2.03787e-05L1208.06 2.00144e-05L1137.41 120.948L1247.65 59.1805L1211.07 1.97516e-05L1215.28 1.93831e-05L1250.79 57.48L1353.27 7.31984e-06L1360.62 6.67705e-06L1253.78 59.875L1364.02 120.109L1364.02 6.37973e-06L1371.37 5.73799e-06L1437 22.7525L1437 26.5486L1370.42 3.47276L1437 101.285L1437 107.667L1367.68 5.87973L1367.68 121.546L1437 121.546L1437 125.139L1367.68 125.139L1367.68 247.739L1437 139.461L1437 146.095L1370.97 249.224L1437 215.55L1437 219.586L1369.83 253.87L1437 288.166L1437 292.19L1370.97 258.468L1437 361.645L1437 368.315L1367.68 260.037L1367.68 386.206L1437 386.206L1437 389.798L1367.68 389.798L1367.68 479L1364.08 479L1364.08 391.223L1260.97 454.942L1306.47 479L1298.78 479L1258.01 457.445L1244.32 479L1240.07 479L1254.82 455.744L1138.26 394.073L1194.59 479L1190.32 479L1134.37 394.684L1134.37 479L1130.78 479L1130.78 392.6L1006.58 469.42L1019.26 479L1013.28 479L1003.28 471.444L991.099 479L984.273 479L1000.24 469.121L899.179 392.78L899.179 479L895.586 479L895.586 392.505L791.895 460.127L827.568 479L819.88 479L788.985 462.654L778.615 479L774.364 479L785.8 461.038L718.5 425.364L718.5 421.304L786.578 457.313L786.578 325.72L718.5 364.962L718.5 360.807L786.374 321.66L746.965 261.163L744.57 261.163L718.5 305.363L718.5 298.297L740.426 261.175L718.5 261.055L718.5 257.463L742.546 257.546L743.528 255.882L718.5 217.49L718.5 210.904L745.564 252.433L778.591 196.498L718.5 163.339L718.5 159.268L779.393 192.798L779.393 68.1138L718.5 102.219L718.5 98.1112L778.651 64.4016L740.51 2.73036L718.5 40.4157L718.5 33.2906L737.948 6.11131e-05L743.061 6.06661e-05ZM1248.41 62.8807L1136.24 125.738L1248.39 187.313L1248.41 62.8807ZM1214.58 247.212L1247.74 191.037L1139.11 131.39L1214.58 247.212ZM1213.76 255.666L1137.89 384.182L1255.15 316.14L1215.79 255.714L1213.76 255.666ZM1216.77 250.577L1217.75 252.074L1358.88 252.074L1250.87 192.798L1216.77 250.577ZM1251.99 62.9047L1251.99 187.289L1362.68 123.342L1251.99 62.9047ZM1364.08 126.719L1253.91 190.331L1364.08 250.84L1364.08 126.719ZM1364.08 256.995L1260.43 317.182L1364.08 384.685L1364.08 256.995ZM1259.17 451.829L1362.53 387.99L1259.17 320.679L1259.17 451.829ZM1258.26 314.284L1359.16 255.666L1220.07 255.666L1258.26 314.284ZM1255.58 452.092L1255.58 319.996L1136.54 389.116L1255.58 452.092ZM1134.33 383.128L1209.57 255.666L1134.33 255.666L1134.33 383.128ZM1134.33 252.074L1211.69 252.074L1212.53 250.661L1134.33 130.647L1134.33 252.074ZM901.334 4.1913L975.963 124.253L1012.4 63.3478L901.334 4.1913ZM1129.24 253.99L1016.05 194.115L900.736 259.762L904.017 261.57L1017.85 322.259L1129.24 253.99ZM904.52 387.391L1126.06 387.391L1017.88 326.391L904.52 387.391ZM1016.59 189.672L1125.57 127.618L979.148 129.33L1016.59 189.672ZM1013.48 191.444L975.963 131.15L901.921 254.912L1013.48 191.444ZM1015.58 65.0363L979.232 125.738L1126.22 123.965L1015.58 65.0363ZM1130.74 0.227552L1018.85 62.7011L1130.74 122.349L1130.74 0.227552ZM1130.74 128.827L1019.72 192.019L1130.74 250.697L1130.74 128.827ZM1130.74 257.259L1021.42 324.319L1130.74 385.99L1130.74 257.259ZM1003.51 467.097L1126.52 390.984L902.747 390.984L1003.51 467.097ZM899.179 386.182L1014.07 324.343L899.179 263.091L899.179 386.182ZM899.179 252.589L972.849 129.462L899.179 130.348L899.179 252.589ZM899.179 126.755L972.729 125.869L899.179 7.48442L899.179 126.755ZM895.586 3.00577L784.842 65.0483L895.586 125.558L895.586 3.00577ZM783.021 68.1258L783.021 192.522L893.682 128.612L783.021 68.1258ZM895.586 131.653L784.614 195.719L895.586 256.948L895.586 131.653ZM895.586 262.827L791.907 322.618L895.586 385.978L895.586 262.827ZM790.206 456.966L894.03 389.188L790.17 325.72L790.206 456.966ZM789.536 319.864L890.461 261.63L751.252 261.175L789.536 319.864ZM747.791 255.798L748.989 257.582L890.198 258.037L781.812 198.234L747.791 255.798Z" fill="url(#paint0_linear_354_267)"/>
<path d="M693.939 958L655.212 1020.65L543.401 958H535.797L424.071 1017.55V958H420.478V1017.87L313.23 958H302.668V1077.1L233.105 958H228.938L299.59 1078.95L189.349 1017.18L225.932 958H221.717L186.211 1015.48L83.7292 958H76.3765L183.217 1017.87L72.9756 1078.11V958H65.635L0 980.752V984.549L66.581 961.473L0 1059.28V1065.67L69.3233 963.88V1079.55H0V1083.14H69.3233V1205.74L0 1097.46V1104.09L66.0301 1207.22L0 1173.55V1177.59L67.1678 1211.87L0 1246.17V1250.19L66.0301 1216.47L0 1319.64V1326.32L69.3233 1218.04V1344.21H0V1347.8H69.3233V1437H72.9158V1349.22L176.032 1412.94L130.527 1437H138.215L178.99 1415.44L192.678 1437H196.929L182.176 1413.74L298.74 1352.07L242.41 1437H246.685L302.632 1352.68V1437H306.225V1350.6L430.417 1427.42L417.736 1437H423.723L433.722 1429.44L445.901 1437H452.727L436.764 1427.12L537.821 1350.78V1437H541.414V1350.5L645.105 1418.13L609.432 1437H617.12L648.015 1420.65L658.385 1437H662.636L651.2 1419.04L718.5 1383.36V1379.3L650.422 1415.31V1283.72L718.5 1322.96V1318.81L650.626 1279.66L690.035 1219.16H692.43L718.5 1263.36V1256.3L696.574 1219.17L718.5 1219.05V1215.46L694.454 1215.55L693.472 1213.88L718.5 1175.49V1168.9L691.436 1210.43L658.409 1154.5L718.5 1121.34V1117.27L657.607 1150.8V1026.11L718.5 1060.22V1056.11L658.349 1022.4L696.49 960.73L718.5 998.416V991.29L699.052 958H693.939ZM188.594 1020.88L300.764 1083.74L188.606 1145.31L188.594 1020.88ZM222.424 1205.21L189.265 1149.04L297.89 1089.39L222.424 1205.21ZM223.238 1213.67L299.111 1342.18L181.852 1274.14L221.214 1213.71L223.238 1213.67ZM220.232 1208.58L219.25 1210.07H78.1249L186.127 1150.8L220.232 1208.58ZM185.014 1020.9V1145.29L74.3168 1081.34L185.014 1020.9ZM72.9158 1084.72L183.086 1148.33L72.9158 1208.84V1084.72ZM72.9158 1215L176.571 1275.18L72.9158 1342.68V1215ZM177.829 1409.83L74.4725 1345.99L177.829 1278.68V1409.83ZM178.739 1272.28L77.8375 1213.67H216.927L178.739 1272.28ZM181.421 1410.09V1278L300.465 1347.12L181.421 1410.09ZM302.668 1341.13L227.429 1213.67H302.668V1341.13ZM302.668 1210.07H225.31L224.471 1208.66L302.668 1088.65V1210.07ZM535.666 962.191L461.037 1082.25L424.598 1021.35L535.666 962.191ZM307.757 1211.99L420.945 1152.11L536.264 1217.76L532.983 1219.57L419.149 1280.26L307.757 1211.99ZM532.48 1345.39H310.943L419.125 1284.39L532.48 1345.39ZM420.406 1147.67L311.434 1085.62L457.852 1087.33L420.406 1147.67ZM423.52 1149.44L461.037 1089.15L535.079 1212.91L423.52 1149.44ZM421.424 1023.04L457.768 1083.74L310.775 1081.97L421.424 1023.04ZM306.261 958.228L418.155 1020.7L306.261 1080.35V958.228ZM306.261 1086.83L417.281 1150.02L306.261 1208.7V1086.83ZM306.261 1215.26L415.58 1282.32L306.261 1343.99V1215.26ZM433.495 1425.1L310.476 1348.98H534.253L433.495 1425.1ZM537.821 1344.18L422.933 1282.34L537.821 1221.09V1344.18ZM537.821 1210.59L464.151 1087.46L537.821 1088.35V1210.59ZM537.821 1084.76L464.271 1083.87L537.821 965.484V1084.76ZM541.414 961.006L652.158 1023.05L541.414 1083.56V961.006ZM653.979 1026.13V1150.52L543.318 1086.61L653.979 1026.13ZM541.414 1089.65L652.386 1153.72L541.414 1214.95V1089.65ZM541.414 1220.83L645.093 1280.62L541.414 1343.98V1220.83ZM646.794 1414.97L542.97 1347.19L646.83 1283.72L646.794 1414.97ZM647.464 1277.86L546.539 1219.63L685.748 1219.17L647.464 1277.86ZM689.209 1213.8L688.011 1215.58L546.802 1216.04L655.188 1156.23L689.209 1213.8Z" fill="url(#paint1_linear_354_267)"/>
<path d="M743.061 958L781.788 1020.65L893.598 958L901.202 958L1012.93 1017.55L1012.93 958L1016.52 958L1016.52 1017.88L1123.77 958L1134.33 958L1134.33 1077.1L1203.89 958L1208.06 958L1137.41 1078.95L1247.65 1017.18L1211.07 958L1215.28 958L1250.79 1015.48L1353.27 958L1360.62 958L1253.78 1017.88L1364.02 1078.11L1364.02 958L1371.36 958L1437 980.752L1437 984.549L1370.42 961.473L1437 1059.28L1437 1065.67L1367.68 963.88L1367.68 1079.55L1437 1079.55L1437 1083.14L1367.68 1083.14L1367.68 1205.74L1437 1097.46L1437 1104.09L1370.97 1207.22L1437 1173.55L1437 1177.59L1369.83 1211.87L1437 1246.17L1437 1250.19L1370.97 1216.47L1437 1319.64L1437 1326.32L1367.68 1218.04L1367.68 1344.21L1437 1344.21L1437 1347.8L1367.68 1347.8L1367.68 1437L1364.08 1437L1364.08 1349.22L1260.97 1412.94L1306.47 1437L1298.78 1437L1258.01 1415.44L1244.32 1437L1240.07 1437L1254.82 1413.74L1138.26 1352.07L1194.59 1437L1190.31 1437L1134.37 1352.68L1134.37 1437L1130.78 1437L1130.78 1350.6L1006.58 1427.42L1019.26 1437L1013.28 1437L1003.28 1429.44L991.099 1437L984.273 1437L1000.24 1427.12L899.179 1350.78L899.179 1437L895.586 1437L895.586 1350.5L791.895 1418.13L827.568 1437L819.88 1437L788.985 1420.65L778.614 1437L774.363 1437L785.799 1419.04L718.5 1383.36L718.5 1379.3L786.578 1415.31L786.578 1283.72L718.5 1322.96L718.5 1318.81L786.374 1279.66L746.965 1219.16L744.57 1219.16L718.5 1263.36L718.5 1256.3L740.426 1219.17L718.5 1219.06L718.5 1215.46L742.546 1215.55L743.528 1213.88L718.5 1175.49L718.5 1168.9L745.563 1210.43L778.59 1154.5L718.5 1121.34L718.5 1117.27L779.393 1150.8L779.393 1026.11L718.5 1060.22L718.5 1056.11L778.65 1022.4L740.51 960.73L718.5 998.416L718.5 991.291L737.947 958L743.061 958ZM1248.41 1020.88L1136.24 1083.74L1248.39 1145.31L1248.41 1020.88ZM1214.58 1205.21L1247.73 1149.04L1139.11 1089.39L1214.58 1205.21ZM1213.76 1213.67L1137.89 1342.18L1255.15 1274.14L1215.79 1213.71L1213.76 1213.67ZM1216.77 1208.58L1217.75 1210.07L1358.87 1210.07L1250.87 1150.8L1216.77 1208.58ZM1251.99 1020.9L1251.99 1145.29L1362.68 1081.34L1251.99 1020.9ZM1364.08 1084.72L1253.91 1148.33L1364.08 1208.84L1364.08 1084.72ZM1364.08 1215L1260.43 1275.18L1364.08 1342.68L1364.08 1215ZM1259.17 1409.83L1362.53 1345.99L1259.17 1278.68L1259.17 1409.83ZM1258.26 1272.28L1359.16 1213.67L1220.07 1213.67L1258.26 1272.28ZM1255.58 1410.09L1255.58 1278L1136.54 1347.12L1255.58 1410.09ZM1134.33 1341.13L1209.57 1213.67L1134.33 1213.67L1134.33 1341.13ZM1134.33 1210.07L1211.69 1210.07L1212.53 1208.66L1134.33 1088.65L1134.33 1210.07ZM901.334 962.191L975.962 1082.25L1012.4 1021.35L901.334 962.191ZM1129.24 1211.99L1016.05 1152.11L900.735 1217.76L904.017 1219.57L1017.85 1280.26L1129.24 1211.99ZM904.52 1345.39L1126.06 1345.39L1017.87 1284.39L904.52 1345.39ZM1016.59 1147.67L1125.57 1085.62L979.148 1087.33L1016.59 1147.67ZM1013.48 1149.44L975.962 1089.15L901.921 1212.91L1013.48 1149.44ZM1015.58 1023.04L979.232 1083.74L1126.22 1081.97L1015.58 1023.04ZM1130.74 958.228L1018.84 1020.7L1130.74 1080.35L1130.74 958.228ZM1130.74 1086.83L1019.72 1150.02L1130.74 1208.7L1130.74 1086.83ZM1130.74 1215.26L1021.42 1282.32L1130.74 1343.99L1130.74 1215.26ZM1003.5 1425.1L1126.52 1348.98L902.747 1348.98L1003.5 1425.1ZM899.179 1344.18L1014.07 1282.34L899.179 1221.09L899.179 1344.18ZM899.179 1210.59L972.849 1087.46L899.179 1088.35L899.179 1210.59ZM899.179 1084.76L972.729 1083.87L899.179 965.484L899.179 1084.76ZM895.586 961.006L784.841 1023.05L895.586 1083.56L895.586 961.006ZM783.021 1026.13L783.021 1150.52L893.682 1086.61L783.021 1026.13ZM895.586 1089.65L784.614 1153.72L895.586 1214.95L895.586 1089.65ZM895.586 1220.83L791.907 1280.62L895.586 1343.98L895.586 1220.83ZM790.206 1414.97L894.029 1347.19L790.17 1283.72L790.206 1414.97ZM789.536 1277.86L890.461 1219.63L751.251 1219.17L789.536 1277.86ZM747.791 1213.8L748.988 1215.58L890.197 1216.04L781.812 1156.23L747.791 1213.8Z" fill="url(#paint2_linear_354_267)"/>
<path d="M746.061 958L784.788 895.347L896.599 958L904.203 958L1015.93 898.448L1015.93 958L1019.52 958L1019.52 898.125L1126.77 958L1137.33 958L1137.33 838.897L1206.89 958L1211.06 958L1140.41 837.053L1250.65 898.82L1214.07 958L1218.28 958L1253.79 900.52L1356.27 958L1363.62 958L1256.78 898.125L1367.02 837.891L1367.02 958L1374.37 958L1440 935.248L1440 931.451L1373.42 954.527L1440 856.715L1440 850.333L1370.68 952.12L1370.68 836.454L1440 836.454L1440 832.861L1370.68 832.861L1370.68 710.261L1440 818.539L1440 811.905L1373.97 708.776L1440 742.45L1440 738.414L1372.83 704.13L1440 669.834L1440 665.81L1373.97 699.532L1440 596.355L1440 589.685L1370.68 697.963L1370.68 571.794L1440 571.794L1440 568.202L1370.68 568.202L1370.68 479L1367.08 479L1367.08 566.777L1263.97 503.058L1309.47 479L1301.78 479L1261.01 500.555L1247.32 479L1243.07 479L1257.82 502.256L1141.26 563.927L1197.59 479L1193.32 479L1137.37 563.316L1137.37 479L1133.78 479L1133.78 565.4L1009.58 488.58L1022.26 479L1016.28 479L1006.28 486.556L994.099 479L987.273 479L1003.24 488.879L902.179 565.22L902.179 479L898.586 479L898.586 565.496L794.895 497.873L830.568 479L822.88 479L791.985 495.346L781.615 479L777.363 479L788.8 496.963L721.5 532.636L721.5 536.696L789.578 500.687L789.578 632.28L721.5 593.038L721.5 597.193L789.374 636.34L749.965 696.837L747.57 696.837L721.5 652.638L721.5 659.703L743.426 696.825L721.5 696.945L721.5 700.538L745.546 700.454L746.528 702.118L721.5 740.51L721.5 747.096L748.564 705.567L781.591 761.502L721.5 794.661L721.5 798.733L782.393 765.203L782.393 889.886L721.5 855.781L721.5 859.889L781.651 893.599L743.51 955.27L721.5 917.584L721.5 924.71L740.948 958L746.061 958ZM1251.41 895.119L1139.24 832.263L1251.39 770.687L1251.41 895.119ZM1217.58 710.788L1250.74 766.963L1142.11 826.61L1217.58 710.788ZM1216.76 702.334L1140.89 573.818L1258.15 641.86L1218.79 702.286L1216.76 702.334ZM1219.77 707.423L1220.75 705.926L1361.88 705.926L1253.87 765.203L1219.77 707.423ZM1254.99 895.095L1254.99 770.711L1365.68 834.658L1254.99 895.095ZM1367.08 831.281L1256.91 767.669L1367.08 707.16L1367.08 831.281ZM1367.08 701.005L1263.43 640.818L1367.08 573.315L1367.08 701.005ZM1262.17 506.171L1365.53 570.01L1262.17 637.322L1262.17 506.171ZM1261.26 643.716L1362.16 702.334L1223.07 702.334L1261.26 643.716ZM1258.58 505.908L1258.58 638.004L1139.54 568.884L1258.58 505.908ZM1137.33 574.872L1212.57 702.334L1137.33 702.334L1137.33 574.872ZM1137.33 705.926L1214.69 705.926L1215.53 707.339L1137.33 827.353L1137.33 705.926ZM904.334 953.809L978.963 833.747L1015.4 894.652L904.334 953.809ZM1132.24 704.01L1019.05 763.885L903.736 698.238L907.017 696.43L1020.85 635.741L1132.24 704.01ZM907.52 570.609L1129.06 570.609L1020.88 631.609L907.52 570.609ZM1019.59 768.328L1128.57 830.382L982.148 828.67L1019.59 768.328ZM1016.48 766.556L978.963 826.85L904.921 703.088L1016.48 766.556ZM1018.58 892.964L982.232 832.263L1129.22 834.035L1018.58 892.964ZM1133.74 957.773L1021.85 895.299L1133.74 835.651L1133.74 957.773ZM1133.74 829.173L1022.72 765.981L1133.74 707.303L1133.74 829.173ZM1133.74 700.741L1024.42 633.681L1133.74 572.01L1133.74 700.741ZM1006.51 490.903L1129.52 567.016L905.747 567.016L1006.51 490.903ZM902.179 571.818L1017.07 633.657L902.179 694.909L902.179 571.818ZM902.179 705.411L975.849 828.538L902.179 827.652L902.179 705.411ZM902.179 831.245L975.729 832.131L902.179 950.516L902.179 831.245ZM898.586 954.994L787.842 892.952L898.586 832.442L898.586 954.994ZM786.021 889.874L786.021 765.478L896.682 829.389L786.021 889.874ZM898.586 826.347L787.614 762.281L898.586 701.052L898.586 826.347ZM898.586 695.173L794.907 635.382L898.586 572.022L898.586 695.173ZM793.206 501.034L897.03 568.813L793.17 632.28L793.206 501.034ZM792.536 638.136L893.461 696.37L754.252 696.825L792.536 638.136ZM750.791 702.202L751.989 700.418L893.198 699.963L784.812 759.766L750.791 702.202Z" fill="url(#paint3_linear_354_267)"/>
<path d="M696.939 958L658.212 895.347L546.402 958L538.798 958L427.071 898.448L427.071 958L423.478 958L423.478 898.125L316.23 958L305.668 958L305.668 838.897L236.106 958L231.938 958L302.591 837.053L192.349 898.82L228.933 958L224.717 958L189.211 900.52L86.7294 958L79.3768 958L186.218 898.125L75.9759 837.891L75.9759 958L68.6352 958L3.00024 935.248L3.00024 931.452L69.5812 954.527L3.00023 856.716L3.00023 850.333L72.3235 952.12L72.3235 836.454L3.00022 836.454L3.00022 832.861L72.3235 832.861L72.3235 710.261L3.00022 818.539L3.00022 811.905L69.0303 708.776L3.00021 742.45L3.00021 738.415L70.168 704.13L3.00019 669.834L3.00019 665.81L69.0303 699.532L3.00018 596.355L3.00018 589.685L72.3235 697.963L72.3234 571.794L3.00018 571.794L3.00018 568.202L72.3234 568.202L72.3234 479L75.9159 479L75.9159 566.777L179.033 503.058L133.528 479L141.216 479L181.99 500.555L195.678 479L199.929 479L185.176 502.256L301.74 563.927L245.41 479L249.685 479L305.632 563.316L305.632 479L309.225 479L309.225 565.4L433.417 488.58L420.736 479L426.723 479L436.723 486.556L448.901 479L455.727 479L439.764 488.879L540.821 565.22L540.821 479L544.414 479L544.414 565.496L648.105 497.873L612.432 479L620.12 479L651.015 495.346L661.386 479L665.637 479L654.201 496.963L721.5 532.636L721.5 536.696L653.422 500.687L653.422 632.28L721.5 593.038L721.5 597.193L653.626 636.34L693.035 696.837L695.43 696.837L721.5 652.638L721.5 659.703L699.574 696.825L721.5 696.945L721.5 700.538L697.454 700.454L696.472 702.118L721.5 740.51L721.5 747.096L694.437 705.567L661.41 761.502L721.5 794.661L721.5 798.733L660.607 765.203L660.607 889.886L721.5 855.781L721.5 859.889L661.35 893.598L699.49 955.27L721.5 917.584L721.5 924.709L702.053 958L696.939 958ZM191.594 895.119L303.764 832.263L191.606 770.687L191.594 895.119ZM225.424 710.788L192.265 766.963L300.89 826.61L225.424 710.788ZM226.238 702.334L302.112 573.818L184.852 641.86L224.214 702.286L226.238 702.334ZM223.232 707.423L222.25 705.926L81.1251 705.926L189.128 765.203L223.232 707.423ZM188.014 895.095L188.014 770.711L77.3171 834.658L188.014 895.095ZM75.916 831.281L186.086 767.669L75.916 707.16L75.916 831.281ZM75.916 701.005L179.572 640.818L75.9159 573.315L75.916 701.005ZM180.829 506.171L77.4727 570.01L180.829 637.322L180.829 506.171ZM181.739 643.716L80.8377 702.334L219.927 702.334L181.739 643.716ZM184.421 505.908L184.421 638.004L303.465 568.884L184.421 505.908ZM305.668 574.872L230.429 702.334L305.668 702.334L305.668 574.872ZM305.668 705.926L228.31 705.926L227.472 707.339L305.668 827.353L305.668 705.926ZM538.666 953.809L464.038 833.747L427.598 894.652L538.666 953.809ZM310.758 704.01L423.945 763.885L539.265 698.238L535.983 696.43L422.149 635.741L310.758 704.01ZM535.48 570.609L313.943 570.609L422.125 631.609L535.48 570.609ZM423.406 768.328L314.434 830.383L460.852 828.67L423.406 768.328ZM426.52 766.556L464.038 826.85L538.079 703.088L426.52 766.556ZM424.424 892.964L460.768 832.263L313.775 834.035L424.424 892.964ZM309.261 957.773L421.155 895.299L309.261 835.652L309.261 957.773ZM309.261 829.173L420.281 765.981L309.261 707.303L309.261 829.173ZM309.261 700.741L418.581 633.681L309.261 572.01L309.261 700.741ZM436.495 490.903L313.476 567.016L537.253 567.016L436.495 490.903ZM540.821 571.818L425.933 633.657L540.821 694.909L540.821 571.818ZM540.821 705.411L467.151 828.538L540.821 827.652L540.821 705.411ZM540.821 831.245L467.271 832.131L540.821 950.516L540.821 831.245ZM544.414 954.994L655.159 892.952L544.414 832.442L544.414 954.994ZM656.979 889.874L656.979 765.478L546.318 829.389L656.979 889.874ZM544.414 826.347L655.386 762.281L544.414 701.052L544.414 826.347ZM544.414 695.173L648.093 635.382L544.414 572.022L544.414 695.173ZM649.794 501.034L545.971 568.813L649.83 632.28L649.794 501.034ZM650.464 638.136L549.539 696.37L688.748 696.825L650.464 638.136ZM692.209 702.202L691.012 700.418L549.803 699.963L658.188 759.766L692.209 702.202Z" fill="url(#paint4_linear_354_267)"/>
<path d="M693.939 0L655.212 62.6532L543.401 0H535.797L424.071 59.5517V0H420.478V59.875L313.23 0H302.668V119.103L233.105 0H228.938L299.59 120.947L189.349 59.1804L225.932 0H221.717L186.211 57.48L83.7292 0H76.3765L183.217 59.875L72.9756 120.109V0H65.635L0 22.7525V26.5486L66.581 3.47275L0 101.285V107.667L69.3233 5.87972V121.546H0V125.139H69.3233V247.739L0 139.461V146.095L66.0301 249.224L0 215.55V219.586L67.1678 253.87L0 288.166V292.19L66.0301 258.468L0 361.645V368.315L69.3233 260.037V386.206H0V389.798H69.3233V479H72.9158V391.223L176.032 454.942L130.527 479H138.215L178.99 457.445L192.678 479H196.929L182.176 455.744L298.74 394.073L242.41 479H246.685L302.632 394.684V479H306.225V392.6L430.417 469.42L417.736 479H423.723L433.722 471.444L445.901 479H452.727L436.764 469.121L537.821 392.78V479H541.414V392.505L645.105 460.127L609.432 479H617.12L648.015 462.654L658.385 479H662.636L651.2 461.037L718.5 425.364V421.304L650.422 457.313V325.72L718.5 364.962V360.807L650.626 321.66L690.035 261.163H692.43L718.5 305.362V298.297L696.574 261.175L718.5 261.055V257.462L694.454 257.546L693.472 255.882L718.5 217.49V210.904L691.436 252.433L658.409 196.498L718.5 163.339V159.267L657.607 192.797V68.1138L718.5 102.219V98.1112L658.349 64.4015L696.49 2.7303L718.5 40.4156V33.2905L699.052 0H693.939ZM188.594 62.8807L300.764 125.737L188.606 187.313L188.594 62.8807ZM222.424 247.212L189.265 191.037L297.89 131.39L222.424 247.212ZM223.238 255.666L299.111 384.182L181.852 316.14L221.214 255.714L223.238 255.666ZM220.232 250.577L219.25 252.074H78.1249L186.127 192.797L220.232 250.577ZM185.014 62.9047V187.289L74.3168 123.342L185.014 62.9047ZM72.9158 126.719L183.086 190.331L72.9158 250.84V126.719ZM72.9158 256.995L176.571 317.182L72.9158 384.685V256.995ZM177.829 451.829L74.4725 387.99L177.829 320.678V451.829ZM178.739 314.284L77.8375 255.666H216.927L178.739 314.284ZM181.421 452.092V319.996L300.465 389.116L181.421 452.092ZM302.668 383.128L227.429 255.666H302.668V383.128ZM302.668 252.074H225.31L224.471 250.661L302.668 130.647V252.074ZM535.666 4.19125L461.037 124.253L424.598 63.3477L535.666 4.19125ZM307.757 253.99L420.945 194.115L536.264 259.762L532.983 261.57L419.149 322.259L307.757 253.99ZM532.48 387.391H310.943L419.125 326.391L532.48 387.391ZM420.406 189.672L311.434 127.618L457.852 129.33L420.406 189.672ZM423.52 191.444L461.037 131.15L535.079 254.912L423.52 191.444ZM421.424 65.0362L457.768 125.737L310.775 123.965L421.424 65.0362ZM306.261 0.227525L418.155 62.7011L306.261 122.349V0.227525ZM306.261 128.827L417.281 192.019L306.261 250.697V128.827ZM306.261 257.259L415.58 324.319L306.261 385.99V257.259ZM433.495 467.097L310.476 390.984H534.253L433.495 467.097ZM537.821 386.182L422.933 324.343L537.821 263.091V386.182ZM537.821 252.589L464.151 129.462L537.821 130.348V252.589ZM537.821 126.755L464.271 125.869L537.821 7.48437V126.755ZM541.414 3.00572L652.158 65.0482L541.414 125.558V3.00572ZM653.979 68.1258V192.522L543.318 128.611L653.979 68.1258ZM541.414 131.653L652.386 195.719L541.414 256.948V131.653ZM541.414 262.827L645.093 322.618L541.414 385.978V262.827ZM646.794 456.966L542.97 389.187L646.83 325.72L646.794 456.966ZM647.464 319.864L546.539 261.63L685.748 261.175L647.464 319.864ZM689.209 255.798L688.011 257.582L546.802 258.037L655.188 198.234L689.209 255.798Z" fill="url(#paint5_linear_354_267)"/>
<defs>
<linearGradient id="paint0_linear_354_267" x1="1445.32" y1="171.865" x2="694.071" y2="301.315" gradientUnits="userSpaceOnUse">
<stop stop-color="#007BC7"/>
<stop offset="1" stop-color="#01BDB7"/>
</linearGradient>
<linearGradient id="paint1_linear_354_267" x1="-8.32262" y1="1129.87" x2="742.929" y2="1259.31" gradientUnits="userSpaceOnUse">
<stop stop-color="#007BC7"/>
<stop offset="1" stop-color="#01BDB7"/>
</linearGradient>
<linearGradient id="paint2_linear_354_267" x1="1445.32" y1="1129.87" x2="694.071" y2="1259.31" gradientUnits="userSpaceOnUse">
<stop stop-color="#007BC7"/>
<stop offset="1" stop-color="#01BDB7"/>
</linearGradient>
<linearGradient id="paint3_linear_354_267" x1="1448.32" y1="786.135" x2="697.071" y2="656.685" gradientUnits="userSpaceOnUse">
<stop stop-color="#007BC7"/>
<stop offset="1" stop-color="#01BDB7"/>
</linearGradient>
<linearGradient id="paint4_linear_354_267" x1="-5.32241" y1="786.135" x2="745.929" y2="656.685" gradientUnits="userSpaceOnUse">
<stop stop-color="#007BC7"/>
<stop offset="1" stop-color="#01BDB7"/>
</linearGradient>
<linearGradient id="paint5_linear_354_267" x1="-8.32262" y1="171.865" x2="742.929" y2="301.315" gradientUnits="userSpaceOnUse">
<stop stop-color="#007BC7"/>
<stop offset="1" stop-color="#01BDB7"/>
</linearGradient>
</defs>
</svg>
