<svg width="24" height="25" viewBox="0 0 24 25" fill="none" xmlns="http://www.w3.org/2000/svg">
<path fill-rule="evenodd" clip-rule="evenodd" d="M9.45 17.0417C10.2 17.4917 11.1 17.7167 12 17.7167C14.775 17.7167 16.95 15.4667 16.95 12.8417C16.95 11.4917 16.5 10.2917 15.525 9.31672C14.55 8.41672 13.35 7.89172 12 7.89172C9.3 7.89172 7.05 10.1417 7.05 12.8417C7.05 13.7417 7.275 14.6417 7.8 15.4667L7.95 15.6917L7.425 17.4917L9.3 16.9667L9.45 17.0417ZM13.65 13.5167C13.8 13.5167 14.55 13.8917 14.7 13.9667C14.7234 13.9784 14.7467 13.9883 14.7698 13.998C14.8949 14.0508 15.0117 14.1001 15.075 14.4167C15.15 14.4167 15.15 14.7167 15 15.0917C14.925 15.3917 14.325 15.7667 14.025 15.7667C13.9742 15.7667 13.9255 15.771 13.8735 15.7756C13.6186 15.7982 13.284 15.8278 12.225 15.3917C10.9106 14.866 9.99938 13.5917 9.74349 13.2338C9.70735 13.1833 9.68428 13.151 9.675 13.1417C9.66222 13.1162 9.63641 13.0754 9.60236 13.0217C9.43644 12.7597 9.075 12.189 9.075 11.5667C9.075 10.8167 9.44999 10.4417 9.59999 10.2917C9.74999 10.1417 9.89999 10.1417 9.97499 10.1417H10.275C10.35 10.1417 10.5 10.1417 10.575 10.3667C10.725 10.6667 11.025 11.4167 11.025 11.4917C11.025 11.5167 11.0333 11.5417 11.0417 11.5667C11.0583 11.6167 11.075 11.6667 11.025 11.7167C10.9875 11.7542 10.9688 11.7917 10.95 11.8292C10.9313 11.8667 10.9125 11.9042 10.875 11.9417L10.65 12.1667C10.575 12.2417 10.5 12.3167 10.575 12.4667C10.65 12.6167 10.95 13.1417 11.4 13.5167C11.9063 13.9598 12.3058 14.1357 12.5084 14.225C12.5458 14.2415 12.5766 14.255 12.6 14.2667C12.75 14.2667 12.825 14.2667 12.9 14.1917C12.9375 14.1167 13.0313 14.0042 13.125 13.8917C13.2187 13.7792 13.3125 13.6667 13.35 13.5917C13.425 13.4417 13.5 13.4417 13.65 13.5167Z" fill="#03111E"/>
<path fill-rule="evenodd" clip-rule="evenodd" d="M0 4.51672C0 2.44566 1.67893 0.766724 3.75 0.766724H20.25C22.3211 0.766724 24 2.44566 24 4.51672V21.0167C24 23.0878 22.3211 24.7667 20.25 24.7667H3.75C1.67893 24.7667 0 23.0878 0 21.0167V4.51672ZM12 6.76672C13.575 6.76672 15.075 7.36673 16.2 8.49173C17.325 9.61673 18 11.1167 18 12.6917C18 15.9917 15.3 18.6917 12 18.6917C11.025 18.6917 10.05 18.3917 9.15001 17.9417L6 18.7667L6.825 15.7667C6.30001 14.8667 6 13.8167 6 12.7667C6 9.46672 8.7 6.76672 12 6.76672Z" fill="#03111E"/>
</svg>
