<svg width="24" height="25" viewBox="0 0 24 25" fill="none" xmlns="http://www.w3.org/2000/svg">
<path d="M14.9248 18.0224H16.5508L9.06615 7.54652H7.4401L14.9248 18.0224Z" fill="#03111E"/>
<path fill-rule="evenodd" clip-rule="evenodd" d="M3.75 0.766724C1.67894 0.766724 0 2.44566 0 4.51672V21.0167C0 23.0878 1.67894 24.7667 3.75 24.7667H20.25C22.3211 24.7667 24 23.0878 24 21.0167V4.51672C24 2.44566 22.3211 0.766724 20.25 0.766724H3.75ZM17.6089 6.76672L13.1414 11.8479L18 18.7667H14.4267L11.1549 14.1076L7.05867 18.7667H6L10.6849 13.4383L6 6.76672H9.57328L12.6714 11.1786L16.5503 6.76672H17.6089Z" fill="#03111E"/>
</svg>
