<svg width="393" height="476" viewBox="0 0 393 476" fill="none" xmlns="http://www.w3.org/2000/svg">
<path d="M174.78 312.77V111.19H219.48V312.28L197.13 334.57L197.03 334.67L174.78 312.77ZM182.7 408.44L44.7 302.59V44.7H348.1V89.18L89.4 89.4V280.54L196.18 362.45L196.4 362.28L196.62 362.45L303.4 280.54V245.57H257.94V200.87H348.1V302.59L210.1 408.44L196.62 419.12L196.4 418.95L196.18 419.12L182.7 408.44ZM0 0V324.64L196.12 475.07V475.5L196.4 475.29L196.68 475.5V475.07L392.8 324.64V0H0Z" fill="black"/>
</svg>
