<svg width="120" height="120" viewBox="0 0 120 120" fill="none" xmlns="http://www.w3.org/2000/svg">
<circle cx="60" cy="60" r="60" fill="#0E1D2B"/>
<path d="M81.7638 38.0687C81.122 37.407 80.0683 37.3943 79.4082 38.0346L61.4455 55.4927C60.787 56.1345 60.7711 57.1898 61.413 57.8499C61.7398 58.1847 62.1738 58.3537 62.6078 58.3537C63.026 58.3537 63.4465 58.199 63.7686 57.8824L81.7313 40.4243C82.3898 39.7824 82.4057 38.7288 81.7638 38.0687Z" fill="white"/>
<path d="M94.3362 51.5661L88.1778 51.5629C87.5534 49.4707 86.687 47.4626 85.6151 45.5584L90.7786 40.4568C90.8873 40.3902 90.9912 40.3124 91.0856 40.2164C91.1721 40.1284 91.2451 40.0324 91.3086 39.9332L93.642 37.6275C94.9051 36.3541 95.5962 34.6618 95.5866 32.8671C95.5787 31.0708 94.8694 29.3864 93.592 28.1233L91.5387 26.089C90.2708 24.8355 88.5912 24.146 86.8092 24.146C84.9978 24.146 83.3007 24.8545 82.0456 26.1263L73.9584 34.1167C72.1994 33.1702 70.3555 32.395 68.4387 31.823L68.4371 25.6646C68.4355 24.7458 67.6905 24 66.7693 24H53.2291C52.3103 24 51.5645 24.745 51.5629 25.6646L51.5613 31.8246C49.6461 32.3966 47.7974 33.1607 46.04 34.1072L41.6922 29.7562C41.3788 29.4428 40.9543 29.2682 40.5132 29.2682C40.072 29.2682 39.6468 29.4436 39.3357 29.7562L29.7585 39.3318C29.1079 39.9824 29.1079 41.036 29.757 41.6874L34.108 46.0384C33.163 47.7942 32.399 49.6461 31.8254 51.5629H25.6662C24.7458 51.5629 24 52.3095 24 53.2291V66.7693C24 67.6897 24.745 68.4355 25.6662 68.4355H31.8246C32.395 70.3492 33.1607 72.1994 34.1088 73.96L29.7562 78.311C29.4444 78.6244 29.2682 79.0489 29.2682 79.49C29.2682 79.9312 29.4451 80.3548 29.7562 80.6674L39.331 90.2422C39.9816 90.8928 41.0368 90.8928 41.6882 90.2422L46.0392 85.8912C47.803 86.8393 49.6516 87.6018 51.5637 88.1723V94.3339C51.5637 95.2542 52.3103 96 53.2299 96H66.7733C67.6937 96 68.4395 95.255 68.4395 94.3339V88.1707C70.3595 87.6002 72.2097 86.8362 73.9624 85.8912L78.315 90.2422C78.9656 90.8928 80.0208 90.8928 80.6722 90.2422L90.2454 80.6674C90.896 80.0168 90.896 78.9616 90.2454 78.3102L85.896 73.9592C86.8409 72.2034 87.6034 70.3532 88.1754 68.4347H94.3354C95.2558 68.4347 96.0032 67.6897 96.0032 66.7685V53.2315C96.0024 52.3127 95.2566 51.5677 94.3362 51.5661ZM79.0338 53.8233C79.6788 55.8132 80.0073 57.8895 80.0073 60C80.0073 71.0299 71.0331 80.0034 60.0016 80.0034C48.9717 80.0034 39.9974 71.0291 39.9974 60C39.9974 48.9701 48.9717 39.9959 60.0016 39.9959C62.3604 39.9959 64.6414 40.3941 66.809 41.1812L51.117 56.6875C51.1139 56.6923 51.1107 56.6971 51.1059 56.7002C51.0877 56.7201 51.0718 56.7439 51.0536 56.7637C50.9837 56.843 50.9218 56.9248 50.8679 57.0128C50.8465 57.0485 50.8274 57.0842 50.8092 57.1215C50.764 57.2112 50.7267 57.3056 50.6973 57.4024C50.691 57.4254 50.6791 57.4444 50.6727 57.4674L47.6245 69.6343C47.4816 70.2016 47.6475 70.8014 48.06 71.2148C48.3758 71.5322 48.8042 71.7043 49.2406 71.7043C49.3739 71.7043 49.5072 71.6885 49.6389 71.6559L61.9272 68.6338C61.9502 68.6275 61.9676 68.6156 61.9891 68.6092C62.0882 68.5815 62.1842 68.5426 62.2787 68.4958C62.3112 68.4791 62.3437 68.4633 62.3763 68.445C62.4786 68.3847 62.5778 68.3117 62.669 68.2268C62.677 68.2189 62.6857 68.2141 62.6936 68.207C62.6952 68.2054 62.6984 68.2038 62.7 68.2022L78.5514 52.5388C78.722 52.9633 78.8926 53.3893 79.0338 53.8233ZM58.2442 66.1084L51.5296 67.7587L53.1942 61.1124L55.6537 63.5449L58.2442 66.1084ZM61.5305 64.674L58.7678 61.9407L54.658 57.8737L70.8125 41.9111C70.8292 41.8969 70.8435 41.8786 70.8609 41.8627L75.4429 37.3348C75.4555 37.3221 75.469 37.3118 75.4801 37.2991L80.6278 32.2133L87.4987 39.0128L61.5305 64.674ZM89.195 28.4566L91.2483 30.4909C91.8933 31.1295 92.2512 31.9785 92.2559 32.8838C92.2607 33.7875 91.9116 34.6396 91.2872 35.2703L89.8709 36.6715L82.9985 29.872L84.4036 28.4835C85.6707 27.195 87.9112 27.1871 89.195 28.4566ZM92.6685 65.1032H86.9044C86.1388 65.1032 85.4739 65.6221 85.2882 66.3647C84.6686 68.8425 83.6919 71.2061 82.3907 73.3863C81.9988 74.0417 82.1027 74.8803 82.6414 75.4198L86.7108 79.4908L79.4924 86.7092L75.4198 82.6398C74.8787 82.0987 74.0425 81.9964 73.3863 82.3875C71.2108 83.6895 68.8489 84.6654 66.3679 85.2866C65.6268 85.4707 65.1064 86.1372 65.1064 86.9028V92.6693H54.8968V86.9028C54.8968 86.1372 54.3763 85.4707 53.6337 85.285C51.167 84.6717 48.805 83.6967 46.6105 82.3875C45.9551 81.9972 45.1181 82.1011 44.5786 82.6398L40.5076 86.7092L33.2892 79.4908L37.3602 75.4198C37.9013 74.8803 38.0052 74.0425 37.6125 73.3863C36.3049 71.1965 35.3283 68.8322 34.7118 66.3663C34.5261 65.6237 33.8597 65.1032 33.0956 65.1032H27.3339V54.896H33.0972C33.8597 54.896 34.5261 54.3755 34.7134 53.6345C35.3346 51.1551 36.3113 48.7931 37.6141 46.6129C38.006 45.9559 37.9021 45.1173 37.3633 44.5794L33.2924 40.5084L40.514 33.2884L44.5817 37.3594C45.1228 37.9005 45.9607 38.0028 46.6152 37.6117C48.8003 36.3065 51.1615 35.3306 53.6353 34.7094C54.3763 34.5237 54.8952 33.8573 54.8952 33.0948L54.8984 27.3315H65.1072L65.1087 33.0948C65.1087 33.8573 65.6292 34.5237 66.3703 34.7094C68.1356 35.1513 69.8398 35.7837 71.4687 36.5779L69.3908 38.6312C66.4337 37.326 63.2839 36.6636 60.0032 36.6636C47.1349 36.6636 36.6675 47.1325 36.6675 59.9992C36.6675 72.8651 47.1349 83.3365 60.0032 83.3365C72.8714 83.3365 83.3404 72.8659 83.3404 59.9992C83.3404 57.5397 82.958 55.115 82.2058 52.7967C81.9004 51.8517 81.5275 50.9234 81.1006 50.0213L83.1508 47.9942C84.0775 49.7841 84.8011 51.6716 85.2922 53.6329C85.4779 54.374 86.1443 54.8944 86.9084 54.8944H92.6701V65.1032H92.6685Z" fill="white"/>
</svg>
