<svg width="120" height="120" viewBox="0 0 120 120" fill="none" xmlns="http://www.w3.org/2000/svg">
<circle cx="60" cy="60" r="60" fill="#0E1D2B"/>
<path d="M95.8822 80.4883L84.9903 61.6261L91.1859 59.2249C91.6204 59.0524 91.9122 58.6345 91.9122 58.1669V50.6115C91.9122 50.1438 91.627 49.7192 91.1859 49.5534L84.6355 47.0161C84.1678 45.4739 83.5442 43.9748 82.7814 42.5552L85.6239 36.1274C85.8129 35.7029 85.72 35.1987 85.3884 34.8704L80.0418 29.5239C79.7135 29.1955 79.2094 29.0993 78.7848 29.2884L72.3571 32.1308C70.9276 31.368 69.4384 30.7544 67.8961 30.2768L65.3588 23.7264C65.1864 23.2919 64.7685 23 64.3008 23H56.7454C56.2777 23 55.8532 23.2852 55.6874 23.7264L53.1501 30.2768C51.6078 30.7444 50.1087 31.368 48.6891 32.1308L42.2614 29.2884C41.8369 29.0993 41.3327 29.1922 41.0043 29.5239L35.6578 34.8704C35.3295 35.1988 35.2333 35.7029 35.4223 36.1274L38.2648 42.5552C37.5019 43.9847 36.8883 45.4739 36.4107 47.0161L29.8603 49.5534C29.4258 49.7259 29.1339 50.1438 29.1339 50.6115V58.1669C29.1339 58.6345 29.4192 59.0491 29.8537 59.2249L35.3462 61.3907L24.152 80.7903C23.8402 81.3376 24.0226 82.0307 24.5666 82.3425L29.253 85.0556C29.8003 85.3773 30.3973 85.5232 30.9943 85.5232C32.0424 85.5232 33.0639 85.0556 33.7405 84.1965L38.6791 87.8947C38.5133 89.1584 39.0008 90.485 40.082 91.3242C40.7653 91.8615 41.5712 92.1135 42.3771 92.1135C42.5164 92.1135 42.6557 92.1135 42.7917 92.087C42.9211 93.0588 43.4153 93.9245 44.188 94.5314C44.8481 95.0521 45.6507 95.3208 46.4832 95.3208C46.6225 95.3208 46.7618 95.3108 46.8977 95.2943C47.0271 96.2296 47.4947 97.1151 48.3007 97.7386C48.9607 98.2594 49.7634 98.528 50.5958 98.528C50.7351 98.528 50.8744 98.5181 51.0104 98.5015C51.1397 99.4368 51.6074 100.322 52.4133 100.946C53.0733 101.467 53.876 101.735 54.7084 101.735C54.8643 101.735 55.0202 101.725 55.1761 101.709C56.1711 101.586 57.0566 101.085 57.6702 100.306L57.9721 99.9144L62.3568 102.445C63.0334 102.836 63.7697 103.016 64.496 103.016C65.9786 103.016 67.4246 102.246 68.2206 100.866C68.612 100.2 68.7911 99.4635 68.7911 98.7338C70.6617 99.3142 72.7579 98.5514 73.7827 96.7835C74.1807 96.0904 74.3631 95.3375 74.3532 94.5912C76.174 95.0489 78.1475 94.2795 79.1259 92.5813C79.5173 91.9146 79.6964 91.1684 79.6898 90.4421C80.4427 90.6676 81.2486 90.6842 82.028 90.4752C83.1358 90.18 84.0645 89.4703 84.6349 88.4819C85.2054 87.4935 85.3547 86.3327 85.0595 85.2249C84.9467 84.8004 84.7742 84.4024 84.5388 84.0376L85.7261 83.016L85.9848 83.4737C86.4525 84.2797 87.2054 84.8601 88.1075 85.0922C88.4093 85.1718 88.7144 85.215 89.0163 85.215C89.6232 85.215 90.2102 85.0591 90.7476 84.7473L95.4341 82.0343C95.6928 81.8883 95.8851 81.6363 95.9614 81.351C96.041 81.0558 95.9946 80.754 95.8486 80.492L95.8822 80.4883ZM31.3959 57.3978V51.3846L37.7375 48.9336C38.0658 48.8043 38.3278 48.5256 38.4207 48.1807C38.9149 46.4295 39.6081 44.7512 40.5003 43.1659C40.6727 42.8541 40.6893 42.4827 40.5533 42.151L37.7972 35.9223L42.0425 31.6769L48.2712 34.4331C48.5996 34.579 48.9744 34.5625 49.2861 34.38C50.8715 33.4878 52.5597 32.7847 54.3009 32.3005C54.6459 32.2043 54.9245 31.9556 55.0538 31.6172L57.5048 25.2757H63.5081L65.9591 31.6172C66.0884 31.9456 66.367 32.2076 66.712 32.3005C68.4532 32.7947 70.1415 33.4878 71.7268 34.38C72.0385 34.5525 72.41 34.5691 72.7417 34.4331L78.9704 31.6769L83.2157 35.9223L80.4596 42.151C80.3136 42.4794 80.3302 42.8541 80.5126 43.1659C81.4048 44.7513 82.108 46.4395 82.5922 48.1807C82.6884 48.5256 82.9371 48.8043 83.2754 48.9336L89.617 51.3846V57.3878L83.8194 59.6332L83.3849 58.8869C83.239 58.6282 82.9869 58.4359 82.7017 58.3596C82.4065 58.28 82.1047 58.3264 81.8427 58.4724L78.7416 60.2667C79.3486 58.3862 79.6703 56.4027 79.6703 54.3928C79.6703 43.8227 71.0667 35.219 60.4966 35.219C49.9264 35.219 41.3228 43.8227 41.3228 54.3928C41.3228 56.8173 41.7805 59.1755 42.6395 61.3745L38.1421 58.7742C37.8834 58.6283 37.5716 58.5851 37.2831 58.6614C36.9879 58.741 36.7458 58.9301 36.5998 59.1888L36.4705 59.4044L31.386 57.3944L31.3959 57.3978ZM60.334 67.1621C57.3955 66.0776 55.7769 66.5983 53.9129 67.1886C52.9511 67.4905 51.8864 67.8288 50.4204 68.0045V63.8023C50.4204 59.9914 53.5215 56.897 57.3258 56.897H62.6889C66.4998 56.897 69.5942 59.998 69.5942 63.8023V65.2219C68.7882 65.0395 67.843 65.1091 66.2145 65.4375C65.4682 65.5933 64.8712 65.6962 64.3339 65.7924C63.1997 66.0013 62.4467 66.1307 61.664 66.469C61.1599 66.6845 60.7188 66.92 60.3307 67.1621L60.334 67.1621ZM60.0057 54.6247C57.432 54.6247 55.3358 52.5285 55.3358 49.9548C55.3358 47.3811 57.432 45.2849 60.0057 45.2849C62.5794 45.2849 64.6756 47.3811 64.6756 49.9548C64.6756 52.5285 62.5794 54.6247 60.0057 54.6247ZM64.8746 54.8933C66.1482 53.6363 66.9442 51.8884 66.9442 49.9548C66.9442 46.124 63.8331 43.0162 60.0057 43.0162C56.1749 43.0162 53.0671 46.1273 53.0671 49.9548C53.0671 51.8884 53.8631 53.6363 55.1368 54.8933C51.1335 55.8817 48.1551 59.4936 48.1551 63.7984V65.9112C45.2529 62.8001 43.6145 58.704 43.6145 54.3892C43.6145 45.0664 51.1965 37.4876 60.5161 37.4876C69.839 37.4876 77.4178 45.0696 77.4178 54.3892C77.4178 58.9795 75.5306 63.4073 72.2205 66.5777C72.0978 66.4981 71.9784 66.4218 71.8657 66.3522V63.795C71.8657 59.49 68.884 55.8681 64.884 54.8899L64.8746 54.8933ZM30.381 83.0783L26.6729 80.9391L38.0064 61.3077L41.7144 63.4469C42.2949 63.7852 42.5038 64.5381 42.1655 65.1186L32.0564 82.6375C31.7181 83.2179 30.9719 83.4269 30.3848 83.0886L30.381 83.0783ZM41.4716 89.5327C40.8315 89.0285 40.7187 88.1031 41.2195 87.463L43.4019 84.6637C43.644 84.352 43.9923 84.1596 44.3803 84.1098C44.7717 84.0568 45.1597 84.1695 45.4648 84.405C46.1049 84.9092 46.2177 85.8345 45.7169 86.4746L43.5246 89.274C43.0204 89.9141 42.0951 90.0268 41.455 89.526L41.4716 89.5327ZM45.5877 92.7466C44.9475 92.2424 44.8348 91.3171 45.3356 90.6769L47.518 87.8776L49.969 84.7401C50.2111 84.4283 50.5593 84.2359 50.9474 84.1862C51.0071 84.1862 51.0701 84.1762 51.1298 84.1762C51.4581 84.1762 51.7699 84.279 52.0319 84.488C52.672 84.9921 52.7848 85.9175 52.284 86.5576L47.6473 92.4912C47.4052 92.803 47.0569 92.9953 46.6689 93.0451C46.2775 93.0981 45.8895 92.9854 45.5777 92.7499L45.5877 92.7466ZM49.7037 95.9605C49.3919 95.7184 49.1996 95.3701 49.1498 94.9821C49.0968 94.5907 49.2095 94.2027 49.445 93.8976L54.0817 87.964C54.2376 87.765 54.367 87.5494 54.4797 87.3305C54.5925 87.2608 54.6953 87.1746 54.7815 87.0619C55.0237 86.7501 55.3719 86.5577 55.7599 86.508C56.1513 86.4549 56.5393 86.5677 56.8444 86.8032C57.4846 87.3073 57.5973 88.2327 57.0965 88.8728L51.75 95.7184C51.5079 96.0302 51.1596 96.2226 50.7716 96.2723C50.3802 96.3254 49.9922 96.2126 49.6871 95.9771L49.7037 95.9605ZM54.901 99.4695C54.5096 99.5226 54.1215 99.4098 53.8164 99.1743C53.1763 98.6702 53.0636 97.7448 53.5644 97.1047L56.2343 93.6919C56.4764 93.3801 56.8247 93.1877 57.2127 93.138C57.604 93.0849 57.9921 93.1977 58.2972 93.4332C58.609 93.6753 58.8013 94.0235 58.8511 94.4116C58.9041 94.8029 58.7914 95.191 58.5559 95.4961L55.886 98.9089C55.6439 99.2207 55.2956 99.4131 54.9076 99.4628L54.901 99.4695ZM82.6945 87.3473C82.4259 87.815 81.9914 88.1433 81.4641 88.2826C80.9367 88.4219 80.3895 88.3523 79.9317 88.0836L77.6432 86.7669L68.857 81.6989C68.3098 81.3872 67.6166 81.5696 67.3048 82.1135C66.9931 82.6608 67.1755 83.3539 67.7194 83.6657L76.4785 88.727C77.3972 89.2974 77.7089 90.5213 77.1617 91.4633C76.6078 92.435 75.3607 92.7634 74.3989 92.2095L72.2165 90.9459L67.0193 87.9476C66.472 87.6358 65.7788 87.8183 65.4671 88.3622C65.1553 88.9094 65.3377 89.6026 65.8817 89.9144L71.0789 92.9126C72.0407 93.4765 72.379 94.7136 71.8152 95.6754C71.2613 96.6472 70.0143 96.9755 69.0524 96.4217L66.6512 95.0353L63.749 93.3537C63.2018 93.042 62.5086 93.2244 62.1968 93.7683C61.8851 94.3156 62.0675 95.0087 62.6114 95.3205L65.5136 97.0021C66.4754 97.556 66.8037 98.7964 66.2499 99.7649C65.696 100.737 64.4489 101.065 63.4871 100.511L59.381 98.1364L60.3329 96.9158C60.9465 96.1265 61.2152 95.1481 61.0958 94.153C60.973 93.158 60.4722 92.2725 59.6928 91.6589C59.2849 91.3372 58.8272 91.1216 58.3396 90.9922L58.9034 90.2725C60.177 88.644 59.8818 86.2859 58.2534 85.0222C57.464 84.4086 56.4856 84.1399 55.4906 84.2593C55.2053 84.2925 54.9267 84.3622 54.668 84.4583C54.4425 83.7917 54.0279 83.1748 53.4276 82.7171C51.7991 81.4434 49.441 81.7387 48.1773 83.3671L47.8489 83.7917C47.6134 83.3572 47.2851 82.9691 46.8705 82.6474C46.0812 82.0338 45.1028 81.7651 44.1077 81.8845C43.1127 82.0072 42.2272 82.5081 41.6136 83.2874L39.6468 85.8082L34.8972 82.256L43.6401 67.1119L49.0464 70.223C49.2188 70.3192 49.4112 70.3689 49.6102 70.3689H49.6799C51.8888 70.2296 53.3879 69.7553 54.5919 69.3739C55.9783 68.9328 56.95 68.6277 58.4658 68.9825C57.7992 70.0041 57.5471 71.1152 57.3746 72.1533C57.2286 73.0455 57.159 73.9211 57.0893 74.7702C56.95 76.3887 56.8306 77.9243 56.2403 79.4832C56.1176 79.8115 56.154 80.1863 56.3431 80.4882C56.5321 80.79 56.8539 80.9823 57.2021 81.0155C63.3015 81.5528 64.1605 79.7154 65.7259 75.2544L71.9547 78.8497L81.9347 84.6108C82.3924 84.8795 82.7307 85.314 82.87 85.8413C83.0093 86.3687 82.9397 86.9159 82.671 87.3736L82.6945 87.3473ZM82.877 82.495L65.6866 72.5744C65.6866 72.5744 65.607 72.5313 65.5639 72.5147C65.5539 72.5147 65.5374 72.5048 65.5307 72.4982C65.4976 72.4882 65.4611 72.4716 65.4345 72.465C65.4246 72.465 65.408 72.465 65.4014 72.455C65.3583 72.4451 65.3151 72.4385 65.2787 72.4285C65.2355 72.4285 65.1924 72.4285 65.1493 72.4186H65.1394H65.1228C65.0631 72.4186 65.0001 72.4186 64.9404 72.4351H64.9238C64.8641 72.4451 64.8011 72.4617 64.7513 72.4783C64.7182 72.4948 64.6817 72.5048 64.6485 72.5214C64.6386 72.5214 64.6319 72.5313 64.6153 72.538C64.5888 72.5546 64.5623 72.5645 64.5457 72.5811C64.5357 72.5811 64.5191 72.5977 64.5125 72.6076C64.486 72.6242 64.4694 72.6342 64.4528 72.6507C64.4429 72.6507 64.4362 72.6673 64.4197 72.6773C64.4031 72.6939 64.3865 72.7104 64.36 72.7303L64.3268 72.7635C64.3102 72.7801 64.2936 72.7967 64.2737 72.8166C64.2638 72.8265 64.2571 72.8431 64.2406 72.8497C64.224 72.8663 64.214 72.8829 64.1974 72.9028C64.1875 72.9194 64.1809 72.9293 64.1709 72.9459C64.1709 72.9459 64.1709 72.9559 64.1609 72.9625C64.1609 72.9791 64.1444 72.989 64.1444 73.0056C64.1444 73.0222 64.1278 73.0388 64.1178 73.0487C64.1079 73.0753 64.1012 73.1018 64.0847 73.1283C64.0847 73.1383 64.0847 73.1449 64.0747 73.1549V73.1715C63.9785 73.4501 63.8857 73.7088 63.7961 73.9608C63.0499 76.1001 62.5557 77.513 61.7961 78.1531C61.2422 78.6208 60.3666 78.8198 58.8509 78.7767C59.1792 77.4434 59.2853 76.1498 59.3981 74.8961C59.4678 74.057 59.5374 73.2577 59.6668 72.4518C59.9785 70.4949 60.4993 69.4004 62.6053 68.5182C63.1592 68.2827 63.7761 68.1732 64.7976 67.9908C65.3184 67.8946 65.9585 67.7819 66.7312 67.626C69.0098 67.1583 69.1325 67.2346 70.562 68.1533C70.9965 68.4319 71.5238 68.7669 72.2269 69.1682C72.5288 69.3407 72.8936 69.3672 73.2153 69.2379L76.9666 67.7056L84.6347 80.9893L82.9101 82.4719L82.877 82.495ZM89.653 82.7803C89.3744 82.9461 89.046 82.9892 88.7243 82.903C88.4025 82.8167 88.1439 82.6177 87.978 82.3391L87.0327 80.7007L78.4028 65.746L77.8754 64.8273C77.7096 64.5487 77.6665 64.2203 77.7527 63.8985C77.8389 63.5768 78.0379 63.3181 78.3232 63.1523L82.0312 61.013L93.3647 80.6445L89.6566 82.7837L89.653 82.7803Z" fill="white"/>
</svg>
