<svg width="120" height="120" viewBox="0 0 120 120" fill="none" xmlns="http://www.w3.org/2000/svg">
<circle cx="60" cy="60" r="60" fill="#0E1D2B"/>
<path fill-rule="evenodd" clip-rule="evenodd" d="M80.3588 73.5422C79.9769 73.1603 79.9769 72.5424 80.3588 72.1574C80.7407 71.7755 81.3585 71.7755 81.7436 72.1574L83.0662 73.4801L86.5094 70.0369C86.8913 69.655 87.5123 69.655 87.8942 70.0369C88.2761 70.4188 88.2761 71.0397 87.8942 71.4216L83.7586 75.5572C83.3767 75.9391 82.7558 75.9391 82.3739 75.5572L80.3588 73.5422ZM41.459 41.8141C41.5366 41.7644 41.6236 41.7241 41.7198 41.6992L44.747 40.8485C44.9643 39.9791 45.25 39.1191 45.5977 38.2746C45.9423 37.4394 46.3491 36.6291 46.8179 35.8467L45.4798 33.4498C45.2624 33.0586 45.34 32.5867 45.6412 32.2855L45.6381 32.2824L49.6743 28.2462C50.0097 27.9108 50.5312 27.8705 50.9101 28.1251L53.2356 29.4229C54.0149 28.9572 54.8283 28.5473 55.6635 28.2027C56.508 27.8518 57.3712 27.5693 58.2374 27.3489L58.9826 24.7129C59.1099 24.2596 59.5352 23.9739 59.9854 24.0019H65.63C66.0771 24.0019 66.4528 24.3031 66.5677 24.7129H66.5708L67.3159 27.3489C68.1853 27.5662 69.0453 27.8518 69.8898 28.2027C70.725 28.5473 71.5353 28.954 72.3178 29.4229L74.7147 28.0847C75.1059 27.8674 75.5778 27.945 75.8789 28.2462L75.882 28.2431L79.9183 32.2793C80.2536 32.6146 80.294 33.1362 80.0394 33.515L78.7416 35.8405C79.2073 36.6198 79.6171 37.4333 79.9618 38.2685C80.3126 39.113 80.5983 39.973 80.8156 40.8424L83.4516 41.5875C83.8831 41.7086 84.1657 42.0998 84.1657 42.5283H84.1688V48.238C84.1688 48.7069 83.8366 49.1011 83.3957 49.1943L80.8187 49.9239C80.6013 50.7933 80.3157 51.6533 79.9649 52.4978C79.6202 53.333 79.2135 54.1434 78.7446 54.9258L80.0828 57.3196C80.3002 57.7108 80.2225 58.1827 79.9214 58.4839L79.9245 58.487L75.8882 62.5232C75.5529 62.8585 75.0313 62.8989 74.6525 62.6443L72.327 61.3434C71.5477 61.8091 70.7342 62.219 69.899 62.5636C69.0545 62.9144 68.1914 63.197 67.3251 63.4174L66.58 66.0534C66.4589 66.485 66.0677 66.7675 65.6392 66.7675V66.7706L63.6707 66.7737C63.6242 66.901 63.5745 67.0252 63.5155 67.1525C63.6335 67.1711 63.7484 67.1991 63.8601 67.2301C64.3662 67.376 64.8102 67.643 65.1672 68.0063C65.5181 68.3634 65.7789 68.8104 65.9217 69.3165C66.167 70.1796 66.0645 71.2166 65.4653 72.2443L70.7249 77.7616C72.1562 79.2612 72.2462 81.0185 71.5911 82.4592C71.3427 83.0025 70.9887 83.4962 70.5571 83.906C70.1287 84.3158 69.6164 84.6481 69.0606 84.8685C67.5951 85.4522 65.844 85.2783 64.4127 83.7756L59.4264 78.544L59.1811 78.7893C57.7125 80.2579 56.3092 80.7795 54.822 81.329C53.6421 81.7668 52.4002 82.2263 51.0527 83.3006C51.3601 83.7694 51.5153 84.3127 51.5153 84.853C51.5153 85.5764 51.239 86.3029 50.6894 86.8555L49.6679 87.8771C49.1153 88.4297 48.3918 88.7061 47.6684 88.7061C47.2648 88.7061 46.8612 88.6191 46.4855 88.4484L39.2203 95.7136C38.8384 96.0955 38.2174 96.0955 37.8355 95.7136C37.4536 95.3317 37.4536 94.7107 37.8355 94.3288L44.9766 87.1878L35.4975 77.7054L23.6712 89.5254C23.2893 89.9072 22.6683 89.9072 22.2864 89.5254C21.9045 89.1435 21.9045 88.5256 22.2864 88.1406L34.2335 76.1935C34.0628 75.8178 33.9758 75.4173 33.9758 75.0106C33.9758 74.2871 34.2521 73.5606 34.8017 73.008L35.8232 71.9865C36.3759 71.4338 37.0993 71.1606 37.8227 71.1606C38.4344 71.1606 39.046 71.3562 39.5552 71.7505C40.6419 70.2819 40.5891 68.6332 40.5363 67.0746C40.4711 65.1093 40.409 63.2557 42.0328 61.6382L42.6942 60.98C42.5607 60.8402 42.4272 60.7036 42.2936 60.5639C40.6792 61.0545 38.9622 61.1104 37.326 60.7378C35.5283 60.331 33.83 59.4058 32.4669 57.9745C31.0977 56.5369 30.2563 54.792 29.9365 52.9757C29.6074 51.1066 29.834 49.1599 30.6102 47.3964C30.8245 46.9027 31.3989 46.6761 31.8956 46.8934C32.0167 46.9462 32.1254 47.0238 32.2123 47.1139L38.0773 53.2676L40.7444 52.6218L41.5175 49.9858L35.6525 43.8321C35.283 43.4409 35.2954 42.823 35.6866 42.4504C35.7829 42.3573 35.8947 42.289 36.0127 42.2455V42.2424C37.7544 41.5811 39.6489 41.4384 41.459 41.8141ZM61.8448 66.0779C61.8169 65.9879 61.8045 65.8947 61.8045 65.7954C61.8045 65.606 61.8572 65.429 61.9504 65.2769C61.9442 65.2055 61.9318 65.134 61.9131 65.0688C61.8603 64.8763 61.7703 64.7149 61.6461 64.5938C61.525 64.4727 61.3698 64.3858 61.1928 64.3423C60.6464 64.2088 59.8857 64.4479 59.0536 65.2582C59.0039 65.311 58.9511 65.3638 58.8984 65.4165C58.5165 65.7984 57.8986 65.7984 57.5136 65.4165C57.1317 65.0346 57.1317 64.4137 57.5136 64.0318C58.3923 63.1531 58.6282 62.3024 58.4606 61.6939C58.4078 61.5014 58.3115 61.3368 58.1842 61.2095C58.0569 61.0853 57.8986 60.9953 57.7185 60.9518C57.2124 60.8276 56.5294 61.0232 55.7873 61.7001L55.4862 62.0013C55.1043 62.3831 54.4864 62.3831 54.1014 62.0013C53.7195 61.6194 53.7195 60.9984 54.1014 60.6165L54.179 60.5389C54.2194 60.4985 54.2566 60.4582 54.297 60.4209L54.8869 59.831C55.7531 58.9648 55.9922 58.1699 55.837 57.611C55.7873 57.4371 55.6973 57.285 55.5793 57.167C55.4551 57.046 55.2967 56.9528 55.1105 56.9C54.5174 56.7324 53.6947 56.959 52.8595 57.7973L51.6114 59.0485C51.6021 59.0578 51.5928 59.0703 51.5803 59.0796L46.8703 63.802L46.8641 63.8082L46.8548 63.8144L46.8393 63.8299L46.8269 63.8392L46.8207 63.8454L46.8082 63.8548L46.802 63.861L46.7896 63.8703L46.7865 63.8734L46.771 63.8858L46.7554 63.8951L46.7492 63.8982L46.7337 63.9075L46.7275 63.9106L46.712 63.92L46.6561 63.9572L46.6437 63.9634L46.6344 63.9665L46.6033 63.9821H46.6002L46.5847 63.9883L46.5909 64.0069L46.5723 64.0162H46.5692L46.5505 64.0224L46.5443 64.0255C46.5319 64.0317 46.5195 64.0348 46.5071 64.041L46.4977 64.0442L46.4853 64.0473L46.476 64.0504L46.4605 64.0566L46.4512 64.0597L46.4015 64.0721L46.3829 64.0752H46.3798L46.3642 64.0783L46.3456 64.0845H46.3425L46.327 64.0876H46.3208L46.3053 64.0907H46.2835L46.2711 64.0938H46.0724L46.06 64.0907H46.0382L46.0227 64.0876H46.0165L46.001 64.0845L45.9886 64.0814L45.9699 64.0752L45.9575 64.0721H45.9544L45.9358 64.069H45.9327L45.9203 64.0659L45.9109 64.0628L45.8861 64.0566L45.8768 64.0535L45.8613 64.0473L45.8551 64.0442L45.8395 64.041L45.8302 64.0379C45.8178 64.0348 45.8054 64.0286 45.793 64.0224L45.7867 64.0193L45.7681 64.0131H45.765L45.7402 64.0007L45.7247 63.9945H45.7215L45.6719 63.9696L45.616 63.9324L45.6036 63.9231L45.5974 63.92L45.5818 63.9106L45.5756 63.9075L45.5601 63.8982L45.5446 63.8858L45.5415 63.8827L45.5291 63.8734L45.5228 63.8672L45.5104 63.8579L45.5042 63.8517L45.4918 63.8423L45.4825 63.8361L45.4732 63.8268L45.4639 63.8206L45.4576 63.8144C44.9764 63.3332 44.5014 62.855 44.0294 62.38L43.3774 63.0289C42.3559 64.0472 42.4025 65.491 42.4552 67.0216C42.5204 69.0087 42.5919 71.1137 40.937 73.1381L49.6769 81.878C51.3038 80.543 52.7476 80.0058 54.1167 79.4997C55.3928 79.0278 56.5944 78.5808 57.7649 77.4102L63.1362 72.0389C63.1952 71.9799 63.2542 71.9178 63.3069 71.8588C63.3535 71.775 63.4156 71.6943 63.4901 71.626C63.5056 71.6136 63.5181 71.598 63.5336 71.5887C64.021 70.9367 64.1421 70.3219 64.0086 69.8531C63.9558 69.6699 63.8658 69.5085 63.7416 69.3843C63.6236 69.2632 63.4684 69.1732 63.2914 69.1204C62.7543 68.9652 62.0029 69.167 61.1926 69.9276L61.1056 70.0146C60.7237 70.3964 60.1028 70.3964 59.7209 70.0146C59.339 69.6327 59.339 69.0148 59.7209 68.6298L60.8945 67.4562C61.4037 66.9687 61.6989 66.5033 61.8448 66.0779ZM63.8599 64.8174H64.9L65.5799 62.4143L65.5893 62.3832C65.6731 62.0262 65.9525 61.7312 66.3344 61.6474C67.3 61.4363 68.2469 61.1444 69.1567 60.7656C70.054 60.3961 70.9265 59.9366 71.771 59.3964C72.0628 59.2101 72.4478 59.1852 72.7707 59.3653L72.839 59.4026L75.0217 60.6228L78.0178 57.6267L76.8008 55.444L76.7883 55.4223C76.5927 55.1118 76.5803 54.7051 76.7915 54.3728C77.3317 53.5314 77.7912 52.6559 78.1607 51.7586C78.5364 50.8489 78.8313 49.9019 79.0425 48.9363C79.117 48.5948 79.3716 48.3029 79.7318 48.2005L79.8094 48.1787L82.2125 47.4988V43.2669L79.8094 42.587L79.7783 42.5777C79.4213 42.4938 79.1263 42.2144 79.0425 41.8325C78.8314 40.8669 78.5395 39.92 78.1607 39.0102C77.7912 38.1129 77.3317 37.2374 76.7915 36.3959C76.6052 36.1041 76.5803 35.7191 76.7604 35.3962L76.7977 35.3279L78.0179 33.1452L76.5183 31.6487L75.0218 30.1522L72.8391 31.3724L72.8174 31.3849C72.5069 31.5805 72.097 31.5929 71.7679 31.3817C70.9265 30.8415 70.051 30.382 69.1537 30.0125C68.244 29.6337 67.3001 29.3419 66.3314 29.1307C65.9899 29.0562 65.698 28.8016 65.5986 28.4414L65.5769 28.3669L64.897 25.9545H60.662L59.9852 28.3606L59.9759 28.3917C59.892 28.7487 59.6126 29.0437 59.2307 29.1275C58.2652 29.3356 57.3182 29.6305 56.4084 30.0093C55.5111 30.3788 54.6356 30.8383 53.7942 31.3786C53.5023 31.568 53.1173 31.5897 52.7944 31.4096L52.7261 31.3724L50.5434 30.1521L49.0438 31.6486L47.5473 33.1452L48.7675 35.3278L48.78 35.3496C48.9756 35.66 48.988 36.0699 48.7737 36.399C48.2335 37.2404 47.7771 38.116 47.4045 39.0133C47.0288 39.9229 46.7339 40.8699 46.5258 41.8355C46.4513 42.1771 46.1967 42.4689 45.8365 42.5714L45.7589 42.5931L44.4269 42.9688C45.169 43.4097 45.8676 43.9592 46.4917 44.6174C47.8547 46.0488 48.6961 47.7906 49.019 49.6006C49.3109 51.2493 49.1711 52.9601 48.603 54.5528L50.9223 56.987L51.478 56.4312C52.8814 55.0248 54.4307 54.6894 55.6385 55.031C56.1446 55.1738 56.5916 55.4346 56.9487 55.7854C57.3119 56.1425 57.5759 56.5896 57.7187 57.0987C57.877 57.6638 57.8801 58.3065 57.6845 58.9803C57.8553 58.9927 58.0229 59.0206 58.1844 59.061C58.7184 59.1914 59.1872 59.4553 59.5599 59.8248C59.9293 60.188 60.2025 60.6538 60.3485 61.1815C60.454 61.5572 60.4913 61.9671 60.4571 62.3924C60.8794 62.3365 61.2831 62.3613 61.6556 62.4514C62.1896 62.5818 62.6584 62.8457 63.0279 63.2152C63.3943 63.5815 63.6644 64.0442 63.8073 64.5719C63.8228 64.6465 63.8413 64.7335 63.8599 64.8174ZM67.5701 37.1008C67.5484 37.0884 67.5236 37.0729 67.5018 37.0605C65.2322 35.772 62.649 35.5143 60.3049 36.1446C57.939 36.778 55.8154 38.3118 54.4958 40.6C54.4865 40.6155 54.4772 40.6311 54.4678 40.6435C53.167 42.9193 52.9062 45.5118 53.5364 47.8652C54.1698 50.2311 55.7067 52.3548 57.9949 53.6774C58.0104 53.6868 58.026 53.6961 58.0415 53.7054C60.3173 55.0001 62.9067 55.2609 65.257 54.6306C67.6229 53.9973 69.7466 52.4635 71.0661 50.1814L71.0692 50.1752C72.3888 47.887 72.6558 45.2789 72.0224 42.91C71.389 40.5441 69.8552 38.4205 67.567 37.1009L67.5701 37.1008ZM68.542 35.4056V35.4087L68.5482 35.4118C71.3021 37.0015 73.1526 39.5599 73.9164 42.4101C74.6802 45.2572 74.3542 48.393 72.7645 51.1469L72.7614 51.15C71.1687 53.9102 68.6103 55.7606 65.7632 56.5213C62.9471 57.2757 59.8423 56.9653 57.1035 55.416C57.0507 55.3942 57.001 55.3632 56.9545 55.3321C54.2315 53.7394 52.4059 51.1997 51.6483 48.3712C50.8908 45.5458 51.2044 42.4348 52.7629 39.6932C52.7847 39.6498 52.8095 39.6063 52.8375 39.5659C54.4302 36.843 56.9699 35.0174 59.7984 34.2598C62.6207 33.5053 65.7286 33.8158 68.4668 35.3713C68.4917 35.3775 68.5171 35.3901 68.542 35.4056ZM49.544 58.3691L46.759 55.4474C46.4981 55.1711 46.4112 54.7551 46.5727 54.3856C47.1812 52.9854 47.3582 51.433 47.0912 49.9364C46.8335 48.4896 46.1659 47.1017 45.0761 45.9623C43.9832 44.8166 42.6233 44.0776 41.1889 43.7548C40.2047 43.5343 39.1863 43.5064 38.1928 43.674L43.3064 49.0392C43.5486 49.2844 43.651 49.6477 43.5486 50.0016L42.4588 53.715C42.3626 54.0379 42.1017 54.3018 41.7509 54.3887L38.0282 55.2891C37.6898 55.3854 37.311 55.2953 37.0533 55.0252L31.9273 49.6446C31.7131 50.6288 31.6944 51.6472 31.8683 52.6438C32.1229 54.0937 32.7936 55.4909 33.8864 56.6335C34.9762 57.776 36.3299 58.5119 37.7581 58.8378C39.2329 59.1732 40.7915 59.0738 42.2229 58.5305C42.5799 58.3939 42.9991 58.4746 43.2816 58.7695C43.8839 59.4029 44.4738 60.0084 45.0637 60.6076C45.4363 60.9864 45.8089 61.362 46.1846 61.7409L49.544 58.3691ZM60.8051 77.1628L65.8256 82.4317C66.6173 83.2607 67.5612 83.3694 68.3405 83.0589C68.6572 82.9316 68.9521 82.7391 69.2099 82.4938C69.4645 82.2516 69.6756 81.9629 69.8153 81.6524C70.1631 80.8886 70.101 79.9448 69.3092 79.1127L64.2111 73.763L60.8051 77.1628ZM49.3015 84.2356L38.441 73.375C38.2733 73.2042 38.0467 73.1204 37.8231 73.1204C37.5996 73.1204 37.376 73.2042 37.2053 73.375L36.1837 74.3965C36.0161 74.5673 35.9292 74.7908 35.9292 75.0144C35.9292 75.2379 36.013 75.4584 36.1806 75.6291L36.1838 75.6322H36.1869L47.0474 86.4928C47.2151 86.6604 47.4386 86.7443 47.6622 86.7443C47.8857 86.7443 48.1093 86.6604 48.28 86.4897L49.3015 85.4682C49.4692 85.2974 49.5561 85.0739 49.5561 84.8503C49.5561 84.6268 49.4692 84.4032 49.3015 84.2356ZM74.1742 78.6035L72.7584 78.5848C72.3113 78.5786 71.9388 78.2744 71.8269 77.8614H71.8238L71.3829 76.2097L70.939 74.561C70.8179 74.1077 71.0352 73.6452 71.4388 73.4402L72.6031 72.7478C72.6062 72.2666 72.6373 71.7822 72.6994 71.2979C72.7615 70.8197 72.8546 70.3447 72.9819 69.8727L71.9946 68.8544C71.681 68.5346 71.6344 68.0534 71.8486 67.6839L72.7024 66.2029C72.7118 66.1842 72.7211 66.1687 72.7335 66.1532L73.5563 64.728C73.7798 64.3399 74.2269 64.163 74.6368 64.2685V64.2654L76.0122 64.6132C76.3569 64.2716 76.7232 63.9519 77.1082 63.6569C77.4932 63.362 77.8969 63.0887 78.316 62.8466L78.3346 61.4308C78.3408 60.9837 78.6451 60.6112 79.058 60.4994L79.0611 60.4963L82.3584 59.6145C82.8117 59.4934 83.2743 59.7107 83.4793 60.1112L84.1779 61.2755C84.6591 61.2786 85.1434 61.3097 85.6278 61.3749C86.1059 61.437 86.581 61.5301 87.056 61.6574L88.0744 60.667C88.3941 60.3534 88.8754 60.3068 89.2449 60.521L92.2069 62.2287C92.5919 62.4522 92.7689 62.8993 92.6633 63.3092L92.3156 64.6846C92.6571 65.0292 92.9769 65.3987 93.2719 65.7806C93.5668 66.1656 93.84 66.5692 94.0822 66.9883L95.4948 67.007C95.9419 67.0132 96.3145 67.3174 96.4263 67.7304H96.4294L96.8703 69.3821L97.3112 71.0308C97.4323 71.4841 97.2149 71.9467 96.8113 72.1516L95.647 72.844C95.6439 73.3253 95.6129 73.8096 95.5508 74.2939C95.4887 74.7721 95.3955 75.2471 95.2682 75.7191L96.2556 76.7374C96.5692 77.0572 96.6157 77.5384 96.4015 77.908L95.5477 79.389L94.6939 80.8731C94.4703 81.2581 94.0232 81.435 93.6103 81.3295L92.2348 80.9817C91.8902 81.3233 91.5238 81.6431 91.1388 81.938C90.7507 82.2329 90.3502 82.5031 89.9311 82.7483L89.9125 84.1641C89.9063 84.6112 89.602 84.9837 89.189 85.0955V85.0986L85.8918 85.9804C85.4385 86.1015 84.9759 85.8842 84.7709 85.4837L84.0785 84.3194C83.5973 84.3163 83.113 84.2852 82.6286 84.22C82.1505 84.1579 81.6723 84.0648 81.2004 83.9406L80.182 84.9279C79.8623 85.2415 79.381 85.2881 79.0115 85.0739L76.0495 83.3663C75.6645 83.1427 75.4875 82.6956 75.5931 82.2858L75.9408 80.9103C75.5993 80.5657 75.2795 80.1962 74.9846 79.8143C74.6865 79.4231 74.4163 79.0195 74.1742 78.6035ZM73.5221 76.6444L74.7144 76.6599C75.0808 76.6444 75.444 76.84 75.6241 77.1877C75.8818 77.6876 76.186 78.1719 76.5338 78.6252C76.866 79.0599 77.2448 79.4728 77.6608 79.8517C77.9309 80.0845 78.0644 80.4602 77.9713 80.8297L77.9589 80.8732L77.6639 82.0406L78.5053 82.525L79.3437 83.0093L80.2037 82.171L80.2378 82.14C80.4893 81.8978 80.8619 81.7953 81.2159 81.9102C81.7623 82.0841 82.3149 82.2083 82.8707 82.2797C83.4202 82.3511 83.9729 82.3759 84.5255 82.3511C84.8888 82.3169 85.2583 82.4908 85.457 82.8261L85.4818 82.8665H85.4787L86.0904 83.8942L87.0311 83.6427L87.9688 83.3912L87.9843 82.2021C87.9688 81.8326 88.1644 81.4725 88.5121 81.2924C89.012 81.0347 89.4964 80.7304 89.9497 80.3827C90.3843 80.0505 90.7973 79.6717 91.1761 79.2556C91.4089 78.9855 91.7846 78.852 92.1541 78.9452L92.2007 78.9576L93.3681 79.2525L93.8525 78.4111L94.3368 77.5728L93.4985 76.7128L93.4675 76.6787C93.2253 76.4303 93.126 76.0577 93.2377 75.7037C93.4116 75.1604 93.5358 74.6046 93.6072 74.0458C93.6817 73.4807 93.7034 72.9125 93.6755 72.3475C93.66 71.9997 93.8307 71.6551 94.1474 71.4657L94.1878 71.4409L95.2217 70.8261L94.7187 68.9508L93.5296 68.9353C93.1632 68.9508 92.8 68.7552 92.6199 68.4074C92.3622 67.9076 92.0579 67.4263 91.7102 66.9699C91.378 66.5352 90.9992 66.1223 90.5832 65.7435C90.313 65.5106 90.1795 65.1349 90.2727 64.7654L90.2851 64.722L90.5801 63.5545L89.7386 63.0702L88.9003 62.5858L88.0403 63.4241L88.0062 63.4552C87.7547 63.6974 87.3852 63.7967 87.0312 63.6849C86.4879 63.5111 85.9322 63.3869 85.3733 63.3155C84.8082 63.241 84.24 63.2192 83.675 63.2472C83.3273 63.2627 82.9826 63.0919 82.7932 62.7721L82.7715 62.7318L82.1567 61.7009L81.216 61.9524L80.2783 62.2039L80.2597 63.3962C80.2752 63.7625 80.0796 64.1258 79.7319 64.3059C79.232 64.5636 78.7476 64.8678 78.2943 65.2155C77.8596 65.5478 77.4498 65.9265 77.0679 66.3426C76.835 66.6127 76.4594 66.7462 76.0899 66.6531L76.0433 66.6407L74.8727 66.3457L74.4194 67.1343C74.4101 67.153 74.4008 67.1716 74.3915 67.1871L73.9072 68.0254L74.7455 68.8854L74.7765 68.9196C75.0187 69.168 75.118 69.5405 75.0063 69.8945C74.8324 70.4379 74.7082 70.9936 74.6368 71.5525C74.5623 72.1175 74.5405 72.6857 74.5685 73.2508C74.584 73.5985 74.4132 73.9431 74.0966 74.1326L74.0562 74.1574L73.0254 74.7722L73.2769 75.7129L73.5221 76.6444ZM85.5066 67.6437C84.0815 67.2618 82.6377 67.4916 81.4548 68.1746C80.2873 68.8484 79.3746 69.9661 78.9864 71.3695C78.9802 71.4005 78.9709 71.4316 78.9616 71.4626C78.5983 72.8722 78.8312 74.2973 79.5049 75.4678C80.1787 76.6353 81.2964 77.5481 82.6998 77.9362C82.7308 77.9424 82.7619 77.9517 82.7929 77.961C84.2025 78.3243 85.6276 78.0914 86.795 77.4177V77.4146C87.978 76.7315 88.9001 75.5982 89.282 74.1732C89.6639 72.748 89.4341 71.3043 88.7511 70.1214C88.0649 68.9477 86.9316 68.0256 85.5066 67.6437ZM80.483 66.4856C82.1007 65.5511 84.0691 65.2344 86.0127 65.756C87.9532 66.2745 89.5024 67.5382 90.437 69.1557C91.3716 70.7734 91.6882 72.7418 91.1666 74.6823C90.645 76.6259 89.3876 78.1752 87.77 79.1066L87.7669 79.1035L87.7638 79.1066C86.1462 80.0412 84.1778 80.3578 82.2373 79.8363C80.2968 79.3147 78.7475 78.0541 77.8129 76.4365C76.8815 74.8189 76.5617 72.8505 77.0833 70.91V70.9069C77.6049 68.9695 78.8655 67.4202 80.483 66.4856ZM56.5825 46.1801L60.1903 49.7879C60.5722 50.1698 61.1931 50.1698 61.5751 49.7879L68.9862 42.3768C69.3681 41.9949 69.3681 41.377 68.9862 40.992C68.6043 40.6101 67.9865 40.6101 67.6015 40.992L60.8827 47.7108L57.9672 44.7954C57.5853 44.4135 56.9644 44.4135 56.5825 44.7954C56.2006 45.1773 56.2006 45.7982 56.5825 46.1801Z" fill="white"/>
</svg>
