<svg width="120" height="120" viewBox="0 0 120 120" fill="none" xmlns="http://www.w3.org/2000/svg">
<circle cx="60" cy="60" r="60" fill="#0E1D2B"/>
<path d="M86.3999 78.9578C89.7081 78.9578 92.3999 81.6496 92.3999 84.9578C92.1179 92.8988 80.6807 92.8967 80.3999 84.9576C80.3999 81.6496 83.0917 78.9578 86.3999 78.9578ZM86.3999 88.5578C91.1469 88.4333 91.146 81.4815 86.3998 81.3578C81.6529 81.4822 81.6538 88.434 86.3999 88.5578Z" fill="white"/>
<path d="M80.4004 84.9579C80.1184 92.8989 68.6812 92.8969 68.4004 84.9578C68.6828 77.0163 80.1198 77.0196 80.4004 84.9579ZM74.4003 81.3579C69.6533 81.4824 69.6543 88.4341 74.4004 88.5579C79.1474 88.4335 79.1465 81.4816 74.4003 81.3579Z" fill="white"/>
<path d="M62.4005 90.9578C54.4595 90.6758 54.4615 79.2386 62.4006 78.9578C70.3421 79.2401 70.3388 90.6772 62.4005 90.9578ZM58.8005 84.9578C58.9249 89.7048 65.8768 89.7039 66.0005 84.9576C65.876 80.2107 58.9242 80.2117 58.8005 84.9578Z" fill="white"/>
<path d="M50.3999 90.9579C47.0917 90.9579 44.3999 88.2661 44.3999 84.9579C44.6819 77.0169 56.1191 77.019 56.3999 84.958C56.3999 88.2661 53.7081 90.9579 50.3999 90.9579ZM50.3999 81.3579C45.6529 81.4823 45.6538 88.4341 50.4 88.5579C55.1469 88.4335 55.146 81.4816 50.3999 81.3579Z" fill="white"/>
<path d="M35.9385 31.5661L48 46.1596C47.6793 43.2562 49.7948 40.5354 52.8001 40.5578C52.8 40.5578 70.3195 40.5578 70.3195 40.5578C72.5801 40.5578 74.5066 42.0965 75.007 44.3037L78.0422 57.8846C78.2918 58.9873 79.2562 59.7578 80.3883 59.7578H84V57.3578C84 55.3726 85.6148 53.7578 87.6 53.7578H88.8C90.7852 53.7578 92.4 55.3726 92.4 57.3578V59.9282C94.4646 60.4648 96 62.3278 96 64.5578V69.3578C96 72.0045 93.8473 74.1578 91.2 74.1578H76.8V75.3578H86.4C91.6934 75.3578 96 79.6644 96 84.9578C96 90.2512 91.6934 94.5578 86.4 94.5578H50.4C45.1066 94.5578 40.8 90.2512 40.8 84.9578C40.8 79.6644 45.1066 75.3578 50.4 75.3578H60V74.1578C59.1103 74.1601 53.537 74.1561 52.8 74.1578C50.1527 74.1578 48 72.0045 48 69.3578V61.5869L31.2 39.433V70.5578C37.5505 70.1822 37.5467 79.335 31.2 78.9578V80.3095C36.5667 81.7471 35.6205 89.6847 29.9998 89.7578C27.3527 89.7578 25.2 87.6045 25.2 84.9578C25.2 84.2951 25.7367 83.7578 26.4 83.7578C27.0633 83.7578 27.6 84.2951 27.6 84.9578C27.6 86.2814 28.6769 87.3578 30 87.3578C33.1645 87.2747 33.1641 82.6404 29.9999 82.5578C29.3367 82.5578 28.8 82.0205 28.8 81.3578V78.9578C22.4495 79.3333 22.4533 70.1806 28.8 70.5578V36.8365C26.0648 36.2789 24 33.8551 24 30.9578C24.368 22.5933 36.5138 23.2562 35.9385 31.5661ZM90 57.3578C90 56.6963 89.4621 56.1578 88.8 56.1578H87.6C86.9379 56.1578 86.4 56.6963 86.4 57.3578V59.7578H90V57.3578ZM91.2 71.7578C92.523 71.7578 93.6 70.6814 93.6 69.3578V64.5578C93.6 63.2342 92.523 62.1578 91.2 62.1578C88.5135 62.1494 83.0451 62.1639 80.3883 62.1577C78.1277 62.1578 76.2012 60.6191 75.7008 58.4119L72.6656 44.831C72.416 43.7283 71.4516 42.9578 70.3195 42.9578H52.8C51.477 42.9578 50.4 44.0342 50.4 45.3578V49.0634L52.8 51.9672V47.7578C52.8 46.4342 53.877 45.3578 55.2 45.3578H68.6039C69.7488 45.3578 70.7391 46.1805 70.9605 47.3271L75.4009 71.7578H91.2ZM72.9621 71.7578L68.6039 47.7578H55.2V54.871L69.157 71.7578H72.9621ZM62.4 74.1578V75.3578H74.4V74.1578H62.4ZM50.4 77.7578C40.8814 78.0904 40.8634 91.8183 50.4001 92.1578C50.4 92.1578 86.4 92.1578 86.4 92.1578C90.3703 92.1578 93.6 88.9281 93.6 84.9578C93.6 80.9875 90.3703 77.7578 86.4 77.7578C75.8533 77.7604 60.9341 77.7568 50.4 77.7578ZM55.2 71.7578H55.7129L55.2 71.0814V71.7578ZM50.4 69.3578C50.4 70.6814 51.477 71.7578 52.8 71.7578V67.9166L50.4 64.7517V69.3578ZM58.7241 71.7578H66.0438L35.0212 34.223C34.3164 35.303 33.2714 36.1275 32.0417 36.5762L58.7241 71.7578ZM28.2 72.9578C25.8355 72.9996 25.834 76.5158 28.2001 76.5578C28.2 76.5578 31.8 76.5578 31.8 76.5578C32.7926 76.5578 33.6 75.7504 33.6 74.7578C33.6 73.7652 32.7926 72.9578 31.8 72.9578H28.2ZM30 34.5578C34.747 34.4334 34.7461 27.4815 29.9999 27.3578C25.253 27.4822 25.2539 34.434 30 34.5578Z" fill="white"/>
<path d="M89.9997 64.5579C90.663 64.5579 91.1997 65.0952 91.1997 65.7579V68.1579C91.1997 68.8206 90.663 69.3579 89.9997 69.3579C89.3364 69.3579 88.7997 68.8206 88.7997 68.1579V65.7579C88.7997 65.0952 89.3364 64.5579 89.9997 64.5579Z" fill="white"/>
<path d="M85.1994 64.5579C85.8627 64.5579 86.3994 65.0952 86.3994 65.7579V68.1579C86.3994 68.8206 85.8627 69.3579 85.1994 69.3579C84.5361 69.3579 83.9994 68.8206 83.9994 68.1579V65.7579C83.9994 65.0952 84.5361 64.5579 85.1994 64.5579Z" fill="white"/>
<path d="M80.4001 64.5579C81.0634 64.5579 81.6001 65.0952 81.6001 65.7579V68.1579C81.6001 68.8206 81.0634 69.3579 80.4001 69.3579C79.7368 69.3579 79.2001 68.8206 79.2001 68.1579V65.7579C79.2001 65.0952 79.7368 64.5579 80.4001 64.5579Z" fill="white"/>
</svg>
