<svg width="120" height="120" viewBox="0 0 120 120" fill="none" xmlns="http://www.w3.org/2000/svg">
<circle cx="60" cy="60" r="60" fill="#0E1D2B"/>
<circle cx="60" cy="60" r="60" fill="#0E1D2B"/>
<path d="M31.8139 96H25.118C24.5005 96 24.003 95.4995 24.003 94.8851L24 69.1867C24 68.5693 24.5005 68.0718 25.115 68.0718H31.8018C32.4192 68.0718 32.9168 68.5723 32.9168 69.1867L32.9258 94.882C32.9258 95.1787 32.8089 95.4634 32.5991 95.6702C32.3952 95.883 32.1106 96 31.8139 96ZM26.233 93.767H30.6959L30.6869 70.3015L26.233 70.3045L26.233 93.767Z" fill="white"/>
<path d="M57.6139 95.4307C56.3581 95.4307 55.1023 95.3078 53.8674 95.0621L40.6468 92.979C40.6318 92.976 40.6169 92.973 40.6019 92.97C39.5138 92.7542 38.3899 92.6433 37.2629 92.6433L32.0866 92.6463C31.4692 92.6463 30.9717 92.1458 30.9717 91.5314C30.9717 90.9139 31.4722 90.4164 32.0866 90.4164H37.2659C38.5307 90.4164 39.7926 90.5393 41.0184 90.7821L54.239 92.8651C54.254 92.8681 54.2689 92.8711 54.2839 92.8741C57.0624 93.4286 59.9637 93.2787 62.6736 92.4395L91.1894 83.5765C92.3853 83.1718 93.1886 82.0538 93.1886 80.789C93.1886 79.1675 91.8728 77.8457 90.2513 77.8457C90.0685 77.8457 89.8736 77.8637 89.6878 77.8997C89.6758 77.9027 89.6668 77.9027 89.6548 77.9057L62.3889 82.1768C61.7805 82.2727 61.208 81.8561 61.1121 81.2476C61.0162 80.6392 61.4328 80.0667 62.0412 79.9708L89.2894 75.6997C89.6042 75.6428 89.9339 75.6128 90.2456 75.6128C93.0959 75.6128 95.4129 77.9326 95.4129 80.7861C95.4129 83.016 93.9921 84.9882 91.8791 85.6925C91.8731 85.6955 91.8641 85.6985 91.8581 85.6985L63.33 94.5647C61.4806 95.1431 59.5471 95.4307 57.6139 95.4307Z" fill="white"/>
<path d="M60.8296 82.4672H46.32C45.7026 82.4672 45.2051 81.9666 45.2051 81.3522C45.2051 80.7348 45.7056 80.2373 46.32 80.2373H60.8296C61.1084 80.2373 61.3781 80.1863 61.6299 80.0874C61.6449 80.0814 61.6599 80.0754 61.6749 80.0724C61.9476 79.9615 62.1964 79.7967 62.4122 79.5838C62.8438 79.1522 63.0746 78.5768 63.0626 77.9623C63.0386 76.7544 62.0046 75.7743 60.7547 75.7743H46.8805C44.8424 75.7743 42.8192 75.0999 41.1887 73.877C39.9448 72.9449 38.4042 72.4293 36.8487 72.4263L31.8282 72.5372H31.8043C31.1988 72.5372 30.7013 72.0547 30.6893 71.4462C30.6743 70.8288 31.1629 70.3192 31.7803 70.3043L36.8127 70.1934H36.8367C38.8748 70.1934 40.898 70.8677 42.5285 72.0907C43.7754 73.0258 45.3219 73.5413 46.8805 73.5413H60.7548C63.2125 73.5413 65.2477 75.5045 65.2957 77.9203C65.3196 79.1432 64.8551 80.2941 63.9889 81.1633C63.5453 81.6039 63.0328 81.9396 62.4633 82.1614C62.4423 82.1704 62.4213 82.1764 62.4003 82.1854C61.9028 82.3712 61.3722 82.4672 60.8296 82.4672Z" fill="white"/>
<path d="M66.4053 71.4312H55.2434C54.6259 71.4312 54.1284 70.9306 54.1284 70.3162V69.2013C54.1284 65.5086 57.1317 62.5054 60.8243 62.5054C64.5169 62.5054 67.5202 65.5086 67.5202 69.2013V70.3162C67.5202 70.9337 67.0197 71.4312 66.4053 71.4312ZM56.3583 69.2013H65.2873C65.2873 66.7405 63.2851 64.7384 60.8244 64.7384C58.3637 64.7354 56.3583 66.7375 56.3583 69.2013Z" fill="white"/>
<path d="M60.8235 64.7449C60.206 64.7449 59.7085 64.2444 59.7085 63.63V38.5163C59.7085 37.8989 60.209 37.4014 60.8235 37.4014C61.4409 37.4014 61.9384 37.9019 61.9384 38.5163V63.6277C61.9414 64.2451 61.4409 64.7449 60.8235 64.7449Z" fill="white"/>
<path d="M60.8237 61.3881H56.3608C50.8218 61.3881 46.3169 56.8833 46.3169 51.3442C46.3169 50.7268 46.8174 50.2292 47.4319 50.2292H51.8948C57.4337 50.2292 61.9387 54.7341 61.9387 60.2732C61.9387 60.8876 61.4411 61.3881 60.8237 61.3881ZM48.6252 52.4591C49.1677 56.2416 52.4287 59.155 56.3581 59.155H59.628C59.0855 55.3724 55.8246 52.4591 51.8952 52.4591H48.6252Z" fill="white"/>
<path d="M65.2873 61.3881H60.8244C60.207 61.3881 59.7095 60.8876 59.7095 60.2732C59.7095 54.7342 64.2144 50.2292 69.7534 50.2292H74.2163C74.8337 50.2292 75.3313 50.7298 75.3313 51.3442C75.3343 56.8832 70.8264 61.3881 65.2873 61.3881ZM62.0203 59.1551H65.2903C69.2197 59.1551 72.4807 56.2388 73.0232 52.4592H69.7532C65.8238 52.4592 62.5627 55.3756 62.0203 59.1551Z" fill="white"/>
<path d="M60.8237 49.1113H56.3608C50.8218 49.1113 46.3169 44.6064 46.3169 39.0674C46.3169 38.4499 46.8174 37.9524 47.4319 37.9524H51.8948C57.4337 37.9524 61.9387 42.4573 61.9387 47.9963C61.9387 48.6107 61.4411 49.1113 60.8237 49.1113ZM48.6252 40.1822C49.1677 43.9648 52.4287 46.8781 56.3581 46.8781H59.628C59.0855 43.0956 55.8246 40.1822 51.8952 40.1822H48.6252Z" fill="white"/>
<path d="M65.2873 49.1113H60.8244C60.207 49.1113 59.7095 48.6107 59.7095 47.9963C59.7095 42.4573 64.2144 37.9524 69.7534 37.9524H74.2163C74.8337 37.9524 75.3313 38.4529 75.3313 39.0674C75.3343 44.6063 70.8264 49.1113 65.2873 49.1113ZM62.0203 46.8783H65.2903C69.2197 46.8783 72.4807 43.9619 73.0232 40.1824H69.7532C65.8238 40.1824 62.5627 43.0987 62.0203 46.8783Z" fill="white"/>
<path d="M60.8237 39.6244C58.3211 39.6244 56.3608 36.6841 56.3608 32.9285C56.3608 29.5865 59.5499 24.9854 59.9156 24.4706C60.1254 24.1738 60.4641 24 60.8267 24C61.1894 24 61.5281 24.1768 61.7379 24.4706C62.1006 24.9861 65.2896 29.5869 65.2896 32.9285C65.2896 36.684 63.3294 39.6244 60.8237 39.6244ZM60.8237 27.1734C59.8256 28.8399 58.5908 31.2827 58.5908 32.9282C58.5908 35.4818 59.7687 37.3911 60.8237 37.3911C61.8788 37.3911 63.0567 35.4818 63.0567 32.9282C63.0567 31.2827 61.8218 28.8399 60.8237 27.1734Z" fill="white"/>
</svg>
